<svg width="360" height="176" viewBox="0 0 360 176" fill="none" xmlns="http://www.w3.org/2000/svg">
<g clip-path="url(#clip0)">
<path d="M84.7417 167.755C87.6495 173.147 93.821 175.462 93.821 175.462C93.821 175.462 95.2779 169.034 92.3701 163.641C89.4622 158.249 83.2908 155.934 83.2908 155.934C83.2908 155.934 81.8338 162.362 84.7417 167.755Z" fill="#2F2E41"/>
<path d="M86.7396 165.984C91.9894 169.143 94.0113 175.417 94.0113 175.417C94.0113 175.417 87.5215 176.569 82.2717 173.411C77.0219 170.252 75 163.979 75 163.979C75 163.979 81.4898 162.826 86.7396 165.984Z" fill="#E81D25"/>
<path d="M204.439 9.40234H171.684V9.87028H204.439V9.40234Z" fill="#F2F2F2"/>
<path d="M195.55 9.75391H195.082V14.0823H195.55V9.75391Z" fill="#F2F2F2"/>
<path d="M181.276 9.75391H180.809V14.0823H181.276V9.75391Z" fill="#F2F2F2"/>
<path d="M221.052 31.8633H188.297V32.3312H221.052V31.8633Z" fill="#F2F2F2"/>
<path d="M197.655 27.6523H197.188V31.9807H197.655V27.6523Z" fill="#F2F2F2"/>
<path d="M211.929 27.6523H211.461V31.9807H211.929V27.6523Z" fill="#F2F2F2"/>
<path d="M264.568 42.3906H231.812V42.8586H264.568V42.3906Z" fill="#F2F2F2"/>
<path d="M241.171 38.1797H240.703V42.5081H241.171V38.1797Z" fill="#F2F2F2"/>
<path d="M255.444 38.1797H254.977V42.5081H255.444V38.1797Z" fill="#F2F2F2"/>
<path d="M261.294 150.953H228.539V151.421H261.294V150.953Z" fill="#F2F2F2"/>
<path d="M237.898 146.742H237.43V151.071H237.898V146.742Z" fill="#F2F2F2"/>
<path d="M252.171 146.742H251.703V151.071H252.171V146.742Z" fill="#F2F2F2"/>
<path d="M205.376 75.8477H172.621V76.3156H205.376V75.8477Z" fill="#F2F2F2"/>
<path d="M181.98 71.6367H181.512V75.9651H181.98V71.6367Z" fill="#F2F2F2"/>
<path d="M196.253 71.6367H195.785V75.9651H196.253V71.6367Z" fill="#F2F2F2"/>
<path d="M215.669 132.234H182.914V132.702H215.669V132.234Z" fill="#F2F2F2"/>
<path d="M192.273 128.023H191.805V132.352H192.273V128.023Z" fill="#F2F2F2"/>
<path d="M206.546 128.023H206.078V132.352H206.546V128.023Z" fill="#F2F2F2"/>
<path d="M268.079 115.156H235.324V115.624H268.079V115.156Z" fill="#F2F2F2"/>
<path d="M244.683 110.945H244.215V115.274H244.683V110.945Z" fill="#F2F2F2"/>
<path d="M258.956 110.945H258.488V115.274H258.956V110.945Z" fill="#F2F2F2"/>
<path d="M159.709 165.285H104.309V164.887H159.31V145.557H108.966L106.52 140.461L106.88 140.289L109.217 145.158H159.709V165.285Z" fill="#2F2E41"/>
<path d="M111.681 175.053C113.992 175.053 115.866 173.18 115.866 170.868C115.866 168.557 113.992 166.684 111.681 166.684C109.37 166.684 107.496 168.557 107.496 170.868C107.496 173.18 109.37 175.053 111.681 175.053Z" fill="#3F3D56"/>
<path d="M152.935 175.053C155.246 175.053 157.12 173.18 157.12 170.868C157.12 168.557 155.246 166.684 152.935 166.684C150.624 166.684 148.75 168.557 148.75 170.868C148.75 173.18 150.624 175.053 152.935 175.053Z" fill="#3F3D56"/>
<path d="M201.559 84.5758C202.99 84.5758 204.15 83.416 204.15 81.9852C204.15 80.5544 202.99 79.3945 201.559 79.3945C200.129 79.3945 198.969 80.5544 198.969 81.9852C198.969 83.416 200.129 84.5758 201.559 84.5758Z" fill="#3F3D56"/>
<path d="M165.634 138.982H103.364L89.8906 94.9414H179.51L179.428 95.2005L165.634 138.982ZM103.659 138.584H165.342L178.967 95.34H90.4293L103.659 138.584Z" fill="#2F2E41"/>
<path d="M160.774 136.692H106.081L94.2461 97.6328H172.962L172.89 97.8628L160.774 136.692Z" fill="#F2F2F2"/>
<path d="M180.628 91.0074L180.242 90.9051L182.872 80.9922H198.171V81.3909H183.179L180.628 91.0074Z" fill="#2F2E41"/>
<path d="M175.033 108.293H94.2461V108.691H175.033V108.293Z" fill="#2F2E41"/>
<path d="M170.406 122.977H98.7383V123.375H170.406V122.977Z" fill="#2F2E41"/>
<path d="M134.899 95.1406H134.5V138.783H134.899V95.1406Z" fill="#2F2E41"/>
<path d="M152.744 95.1282L149.883 138.77L150.281 138.796L153.142 95.1543L152.744 95.1282Z" fill="#2F2E41"/>
<path d="M116.667 95.1303L116.27 95.1562L119.114 138.799L119.512 138.773L116.667 95.1303Z" fill="#2F2E41"/>
<path d="M284.634 175.305H75V175.773H284.634V175.305Z" fill="#2F2E41"/>
<path d="M214.305 15.4781C214.305 15.4781 217.725 25.2126 215.62 26.7102C213.515 28.2078 222.724 40.4383 222.724 40.4383L233.774 37.443L227.722 27.2094C227.722 27.2094 226.933 16.9757 226.933 15.4781C226.933 13.9805 214.305 15.4781 214.305 15.4781Z" fill="#A0616A"/>
<path opacity="0.1" d="M214.305 15.4781C214.305 15.4781 217.725 25.2126 215.62 26.7102C213.515 28.2078 222.724 40.4383 222.724 40.4383L233.774 37.443L227.722 27.2094C227.722 27.2094 226.933 16.9757 226.933 15.4781C226.933 13.9805 214.305 15.4781 214.305 15.4781Z" fill="black"/>
<path d="M208.565 84.8665C208.565 84.8665 207.566 97.3465 208.565 103.836C209.563 110.326 211.061 128.297 211.061 128.297C211.061 128.297 211.061 162.243 216.552 162.742C222.043 163.241 226.037 163.741 226.536 161.744C227.035 159.747 224.04 158.749 225.538 157.75C227.035 156.752 227.535 153.257 225.538 149.264C223.541 145.27 225.538 104.835 225.538 104.835L235.023 130.294C235.023 130.294 236.021 151.26 237.019 154.256C238.018 157.251 236.021 162.742 239.515 163.241C243.01 163.741 247.003 160.745 249 159.747C250.997 158.749 246.005 158.749 247.003 158.249C248.002 157.75 250.997 156.253 249.999 155.753C249 155.254 248.002 131.292 248.002 131.292C248.002 131.292 245.256 80.124 241.762 78.1272C238.267 76.1304 236.021 79.5698 236.021 79.5698L208.565 84.8665Z" fill="#2F2E41"/>
<path d="M217.552 160.746V164.74C217.552 164.74 213.059 175.596 217.552 175.596C222.044 175.596 225.539 176.721 225.539 175.223V161.745L217.552 160.746Z" fill="#2F2E41"/>
<path d="M247.003 160.738V164.732C247.003 164.732 251.496 175.588 247.003 175.588C242.51 175.588 239.016 176.713 239.016 175.215V161.737L247.003 160.738Z" fill="#2F2E41"/>
<path d="M221.294 22.7135C226.257 22.7135 230.28 18.6905 230.28 13.7278C230.28 8.7652 226.257 4.74219 221.294 4.74219C216.332 4.74219 212.309 8.7652 212.309 13.7278C212.309 18.6905 216.332 22.7135 221.294 22.7135Z" fill="#A0616A"/>
<path d="M218.549 30.4531C218.549 30.4531 221.045 37.9412 225.039 36.4436L229.032 34.9459L236.021 82.8694C236.021 82.8694 230.53 90.8567 222.543 85.8647C214.556 80.8726 218.549 30.4531 218.549 30.4531Z" fill="#E81D25"/>
<path d="M225.539 28.9573L227.785 24.2148C227.785 24.2148 241.014 30.4549 243.011 32.4517C245.008 34.4485 245.008 37.4437 245.008 37.4437L241.514 49.9238C241.514 49.9238 242.512 77.38 242.512 78.3784C242.512 79.3768 246.006 84.868 243.51 82.8712C241.014 80.8744 240.515 78.8776 238.518 81.8728C236.522 84.868 232.029 88.3624 232.029 88.3624L225.539 28.9573Z" fill="#3F3D56"/>
<path d="M243.01 64.8984L241.513 78.8761C241.513 78.8761 232.527 86.8634 234.524 87.3626C236.521 87.8618 237.519 85.865 237.519 85.865C237.519 85.865 241.014 89.3594 243.01 87.3626C245.007 85.3658 249.999 66.396 249.999 66.396L243.01 64.8984Z" fill="#A0616A"/>
<path d="M221.487 1.03039C219.495 0.959173 217.364 0.923947 215.684 1.99742C214.911 2.53614 214.233 3.19964 213.678 3.96075C212.043 6.02865 210.629 8.63054 211.237 11.1962L211.943 10.921C211.943 11.6059 211.79 12.2822 211.497 12.901C211.596 12.612 211.929 13.0791 211.84 13.3714L211.062 15.9218C212.34 15.4533 213.93 16.4019 214.125 17.749C214.214 14.7867 214.521 11.3899 216.924 9.65536C218.136 8.78064 219.669 8.51361 221.145 8.27649C222.506 8.05773 223.933 7.84913 225.237 8.29728C226.541 8.74543 227.651 10.0789 227.356 11.4256C227.957 11.2185 228.629 11.6375 228.927 12.1997C229.224 12.7619 229.239 13.4251 229.248 14.0609C229.889 14.5138 230.618 13.6145 230.88 12.8745C231.493 11.1374 232.038 9.28837 231.707 7.47616C231.377 5.66395 229.9 3.9321 228.058 3.92595C228.282 3.68037 228.401 3.35744 228.391 3.02548L226.873 2.8972C227.258 2.84262 227.613 2.65573 227.875 2.36854C227.266 3.0393 222.473 1.06562 221.487 1.03039Z" fill="#2F2E41"/>
<path d="M221.045 27.4601C221.045 27.4601 216.981 23.4778 215.519 23.7217C214.056 23.9656 212.059 27.4601 212.059 27.4601C212.059 27.4601 200.078 31.4537 200.578 35.4473C201.077 39.4409 206.568 58.9099 206.568 58.9099C206.568 58.9099 211.061 82.3724 207.067 84.8684C203.074 87.3645 226.037 93.8541 226.536 90.8589C227.035 87.8637 228.034 57.9115 226.536 53.4186C225.039 48.9258 221.045 27.4601 221.045 27.4601Z" fill="#3F3D56"/>
<path d="M238.516 35.4453H244.688C244.688 35.4453 248.999 54.415 249.498 56.4118C249.997 58.4087 250.996 67.8935 250.496 67.8935C249.997 67.8935 240.013 65.8967 240.013 67.3943L238.516 35.4453Z" fill="#3F3D56"/>
<path d="M238.308 82.4191H214.677C212.371 71.8111 212.179 61.5618 214.677 51.7695H238.308C234.495 61.3857 234.256 71.5647 238.308 82.4191Z" fill="#F2F2F2"/>
<path d="M205.07 69.3927L212.059 72.388C212.059 72.388 225.538 74.3848 225.538 68.8935C225.538 63.4023 212.059 66.3975 212.059 66.3975L207.566 64.9609L205.07 69.3927Z" fill="#A0616A"/>
<path d="M206.566 32.4492L200.575 33.9468L196.082 60.4046C196.082 60.4046 194.585 67.3934 197.081 67.8926C199.577 68.3918 206.566 72.3855 206.566 72.3855C206.566 72.3855 207.564 64.8974 209.561 64.8974L204.569 60.9038L207.564 43.4317L206.566 32.4492Z" fill="#3F3D56"/>
<path d="M121.849 83.5703H89.0938V84.0382H121.849V83.5703Z" fill="#F2F2F2"/>
<path d="M98.4523 79.3594H97.9844V83.6877H98.4523V79.3594Z" fill="#F2F2F2"/>
<path d="M112.726 79.3594H112.258V83.6877H112.726V79.3594Z" fill="#F2F2F2"/>
<path d="M133.314 14.3164H100.559V14.7843H133.314V14.3164Z" fill="#F2F2F2"/>
<path d="M124.425 14.668H123.957V18.9963H124.425V14.668Z" fill="#F2F2F2"/>
<path d="M110.152 14.668H109.684V18.9963H110.152V14.668Z" fill="#F2F2F2"/>
<path d="M166.302 60.4062H133.547V60.8742H166.302V60.4062Z" fill="#F2F2F2"/>
<path d="M157.413 60.7578H156.945V65.0862H157.413V60.7578Z" fill="#F2F2F2"/>
<path d="M143.14 60.7578H142.672V65.0862H143.14V60.7578Z" fill="#F2F2F2"/>
<path d="M110.619 60.1719H77.8633V60.6398H110.619V60.1719Z" fill="#F2F2F2"/>
<path d="M101.73 60.5234H101.262V64.8518H101.73V60.5234Z" fill="#F2F2F2"/>
<path d="M87.4562 60.5234H86.9883V64.8518H87.4562V60.5234Z" fill="#F2F2F2"/>
<path d="M149.927 36.7773H117.172V37.2453H149.927V36.7773Z" fill="#F2F2F2"/>
<path d="M126.53 32.5664H126.062V36.8948H126.53V32.5664Z" fill="#F2F2F2"/>
<path d="M140.8 32.5664H140.332V36.8948H140.8V32.5664Z" fill="#F2F2F2"/>
</g>
<defs>
<clipPath id="clip0">
<rect width="209.634" height="175" fill="white" transform="translate(75 1)"/>
</clipPath>
</defs>
</svg>
