<svg width="19" height="20" viewBox="0 0 19 20" fill="none" xmlns="http://www.w3.org/2000/svg">
<path d="M9.45813 7.875H11.2172V5.25H13.8557V3.5H11.2172V0.875H9.45813V3.5H6.8196V5.25H9.45813V7.875ZM5.94009 15.75C4.97263 15.75 4.18986 16.5375 4.18986 17.5C4.18986 18.4625 4.97263 19.25 5.94009 19.25C6.90755 19.25 7.69911 18.4625 7.69911 17.5C7.69911 16.5375 6.90755 15.75 5.94009 15.75ZM14.7352 15.75C13.7677 15.75 12.985 16.5375 12.985 17.5C12.985 18.4625 13.7677 19.25 14.7352 19.25C15.7027 19.25 16.4942 18.4625 16.4942 17.5C16.4942 16.5375 15.7027 15.75 14.7352 15.75ZM6.08961 12.9062L6.11599 12.8013L6.90755 11.375H13.4599C14.1195 11.375 14.7 11.0163 14.999 10.4738L18.394 4.34L16.8636 3.5H16.8548L15.8874 5.25L13.4599 9.625H7.28574L7.1714 9.38875L5.2013 5.25L4.36576 3.5L3.53902 1.75H0.663025V3.5H2.42205L5.58828 10.1413L4.40095 12.285C4.26022 12.53 4.18107 12.8188 4.18107 13.125C4.18107 14.0875 4.97263 14.875 5.94009 14.875H16.4942V13.125H6.30948C6.19515 13.125 6.08961 13.0288 6.08961 12.9062Z" fill="white"/>
</svg>
