<svg width="38" height="24" viewBox="0 0 38 24" fill="none" xmlns="http://www.w3.org/2000/svg">
<path d="M1.29595 0H26.4418V3.27273C26.4418 3.87571 26.9297 4.36364 27.5327 4.36364C28.1357 4.36364 28.6236 3.87571 28.6236 3.27273V0H36.3505C36.9615 0 37.4414 0.479927 37.4414 1.09091V7.63636C37.4414 8.2472 36.9615 8.72727 36.3505 8.72727C34.5395 8.72727 33.0778 10.189 33.0778 12C33.0778 13.8108 34.5395 15.2727 36.3505 15.2727C36.9615 15.2727 37.4414 15.7527 37.4414 16.3636V22.9091C37.4414 23.5199 36.9615 24 36.3505 24H28.7141V20.7273C28.7141 20.1243 28.2262 19.6364 27.6232 19.6364C27.0202 19.6364 26.5323 20.1243 26.5323 20.7273V24H1.29595C0.684971 24 0.205044 23.5199 0.205044 22.9091V1.09091C0.205044 0.479927 0.684971 0 1.29595 0ZM26.5323 16.3636C26.5323 16.9666 27.0202 17.4545 27.6232 17.4545C28.2262 17.4545 28.7141 16.9666 28.7141 16.3636V14.1818C28.7141 13.5788 28.2262 13.0909 27.6232 13.0909C27.0202 13.0909 26.5323 13.5788 26.5323 14.1818V16.3636ZM26.5323 9.81818C26.5323 10.4212 27.0202 10.9091 27.6232 10.9091C28.2262 10.9091 28.7141 10.4212 28.7141 9.81818V7.63636C28.7141 7.03338 28.2262 6.54545 27.6232 6.54545C27.0202 6.54545 26.5323 7.03338 26.5323 7.63636V9.81818Z" fill="#FD4E26"/>
<path d="M33.0778 12C33.0778 13.8108 34.5395 15.2727 36.3505 15.2727C36.9615 15.2727 37.4414 15.7527 37.4414 16.3636V22.9091C37.4414 23.5199 36.9615 24 36.3505 24H28.7141V20.7273C28.7141 20.1243 28.2262 19.6364 27.6232 19.6364C27.0202 19.6364 26.5323 20.1243 26.5323 20.7273V24H1.29595C0.684971 24 0.205044 23.5199 0.205044 22.9091V12H33.0778ZM26.5323 16.3636C26.5323 16.9666 27.0202 17.4545 27.6232 17.4545C28.2262 17.4545 28.7141 16.9666 28.7141 16.3636V14.1818C28.7141 13.5788 28.2262 13.0909 27.6232 13.0909C27.0202 13.0909 26.5323 13.5788 26.5323 14.1818V16.3636Z" fill="#FD3018"/>
<path d="M16.5671 10.9126C18.3718 10.9126 19.8398 9.44457 19.8398 7.63991C19.8398 5.83526 18.3718 4.36719 16.5671 4.36719C14.7625 4.36719 13.2944 5.83526 13.2944 7.63991C13.2944 9.44457 14.7625 10.9126 16.5671 10.9126Z" fill="#FEDB41"/>
<path d="M7.84055 19.6353C9.64521 19.6353 11.1133 18.1672 11.1133 16.3626C11.1133 14.5579 9.64521 13.0898 7.84055 13.0898C6.0359 13.0898 4.56783 14.5579 4.56783 16.3626C4.56783 18.1672 6.0359 19.6353 7.84055 19.6353Z" fill="#FCBF29"/>
<path d="M6.9246 6.06612L10.8736 12.0007L12.2045 13.9861L15.6519 19.157C15.9791 19.6371 16.6554 19.7898 17.1792 19.4625C17.6809 19.1135 17.8118 18.4371 17.4845 17.9352L13.5354 12.0007L12.2045 10.0152L8.75718 4.8443C8.40817 4.34255 7.7318 4.21164 7.22991 4.53884C6.72816 4.88801 6.59725 5.56437 6.9246 6.06612Z" fill="#FEDB41"/>
<path d="M10.8736 12L12.2045 13.9854L15.6519 19.1563C15.9791 19.6364 16.6554 19.7891 17.1792 19.4617C17.6809 19.1127 17.8118 18.4364 17.4845 17.9345L13.5354 12H10.8736Z" fill="#FCBF29"/>
</svg>
