<svg width="27" height="21" viewBox="0 0 27 21" fill="none" xmlns="http://www.w3.org/2000/svg">
<path d="M26.8352 8.41478L21.2102 2.78981C21.1047 2.68434 20.9619 2.62502 20.8125 2.62502H15.75V0.937518C15.75 0.626596 15.4984 0.375 15.1875 0.375H2.25002C1.00965 0.375 0 1.38407 0 2.62502V16.6875C0 17.6181 0.756949 18.375 1.6875 18.375H3.01989C3.48574 19.6817 4.72284 20.625 6.18748 20.625C7.65218 20.625 8.88927 19.6817 9.35518 18.375H17.6449C18.1108 19.6817 19.3478 20.625 20.8125 20.625C22.2772 20.625 23.5143 19.6817 23.9802 18.375H24.75C25.9904 18.375 27.0001 17.3659 27.0001 16.125V8.8125C27 8.6631 26.9407 8.52025 26.8352 8.41478ZM3.375 11.0625V6.56254C3.375 6.25161 3.6266 6.00002 3.93752 6.00002H6.18754C6.49846 6.00002 6.75005 6.25161 6.75005 6.56254C6.75005 6.87346 6.49846 7.12505 6.18754 7.12505H4.50004V8.25004H5.62502C5.93594 8.25004 6.18754 8.50163 6.18754 8.81255C6.18754 9.12348 5.93594 9.37507 5.62502 9.37507H4.49998V11.0626C4.49998 11.3735 4.24839 11.6251 3.93746 11.6251C3.6266 11.625 3.375 11.3734 3.375 11.0625ZM6.18748 19.5C4.94712 19.5 3.93746 18.4909 3.93746 17.25C3.93746 16.0091 4.94712 15 6.18748 15C7.42785 15 8.4375 16.0091 8.4375 17.25C8.4375 18.4909 7.42785 19.5 6.18748 19.5ZM11.25 9.93748V11.0625C11.25 11.3734 10.9984 11.625 10.6875 11.625C10.3765 11.625 10.1249 11.3734 10.1249 11.0625V9.93748C10.1249 9.62714 9.87224 9.37496 9.56243 9.37496H8.99991V11.0625C8.99991 11.3734 8.74832 11.625 8.43739 11.625C8.12647 11.625 7.87488 11.3734 7.87488 11.0625V6.56248C7.87488 6.25156 8.12647 5.99996 8.43739 5.99996H9.56238C10.4929 5.99996 11.2499 6.75691 11.2499 7.68746C11.2499 8.11925 11.0873 8.51365 10.8192 8.81245C11.0874 9.11135 11.25 9.50575 11.25 9.93748ZM14.625 8.24998C14.9359 8.24998 15.1875 8.50158 15.1875 8.8125C15.1875 9.12342 14.9359 9.37502 14.625 9.37502H13.5V10.5H15.1875C15.4984 10.5 15.75 10.7516 15.75 11.0625C15.75 11.3734 15.4984 11.625 15.1875 11.625H12.9375C12.6266 11.625 12.375 11.3734 12.375 11.0625V6.56254C12.375 6.25161 12.6266 6.00002 12.9375 6.00002H15.1875C15.4984 6.00002 15.75 6.25161 15.75 6.56254C15.75 6.87346 15.4984 7.12505 15.1875 7.12505H13.5V8.25004H14.625V8.24998ZM17.4375 11.625C17.1266 11.625 16.875 11.3734 16.875 11.0625V6.56248C16.875 6.25156 17.1266 5.99996 17.4375 5.99996H19.6875C19.9985 5.99996 20.2501 6.25156 20.2501 6.56248C20.2501 6.8734 19.9985 7.125 19.6875 7.125H18V8.24998H19.125C19.4359 8.24998 19.6875 8.50158 19.6875 8.8125C19.6875 9.12342 19.4359 9.37502 19.125 9.37502H18V10.5H19.6875C19.9985 10.5 20.2501 10.7516 20.2501 11.0625C20.2501 11.3734 19.9985 11.625 19.6875 11.625H17.4375V11.625ZM20.8125 19.5C19.5722 19.5 18.5625 18.4909 18.5625 17.25C18.5625 16.0091 19.5722 15 20.8125 15C22.0529 15 23.0625 16.0091 23.0625 17.25C23.0625 18.4909 22.0529 19.5 20.8125 19.5Z" fill="#FDB813"/>
</svg>
