<svg width="24" height="24" viewBox="0 0 24 24" fill="none" xmlns="http://www.w3.org/2000/svg">
<g clip-path="url(#clip0)">
<path d="M2.54058 11.7047C2.54058 11.7047 3.48877 13.0977 5.47608 14.2768C5.47608 14.2768 4.03678 2.11261 13.4147 0C11.0121 8.81817 16.471 11.305 18.4609 6.64622C21.784 11.083 19.2608 14.9538 19.2608 14.9538C20.6235 15.1501 21.768 13.6615 21.768 13.6615C21.7783 13.8449 21.784 14.0295 21.784 14.2155C21.784 19.6193 17.4033 24 11.9994 24C6.59555 24 2.21484 19.6193 2.21484 14.2154C2.21484 13.3474 2.32847 12.506 2.54058 11.7047Z" fill="#FF6536"/>
<path d="M21.7687 13.6615C21.7687 13.6615 20.6241 15.1501 19.2615 14.9538C19.2615 14.9538 21.7846 11.083 18.4615 6.64622C16.4716 11.305 11.0127 8.81817 13.4153 0C12.9131 0.113156 12.4421 0.255328 12 0.422719V24C17.4039 24 21.7846 19.6193 21.7846 14.2154C21.7846 14.0295 21.7789 13.8449 21.7687 13.6615Z" fill="#FF421D"/>
<path d="M7.70703 19.7075C7.70703 22.0774 9.62825 23.9986 11.9982 23.9986C14.3681 23.9986 16.2893 22.0774 16.2893 19.7075C16.2893 18.439 15.7389 17.2991 14.8639 16.5135C13.2048 18.7675 10.8405 15.3484 12.6831 12.8516C12.6831 12.8516 7.70703 13.4751 7.70703 19.7075Z" fill="#FBBF00"/>
<path d="M16.2911 19.7075C16.2911 18.439 15.7408 17.2991 14.8658 16.5135C13.2067 18.7675 10.8424 15.3484 12.6849 12.8516C12.6849 12.8516 12.4146 12.8855 12 13.0164V23.9986C14.3699 23.9986 16.2911 22.0774 16.2911 19.7075Z" fill="#FFA900"/>
</g>
<defs>
<clipPath id="clip0">
<rect width="24" height="24" fill="white"/>
</clipPath>
</defs>
</svg>
