<svg width="20" height="20" viewBox="0 0 20 20" fill="none" xmlns="http://www.w3.org/2000/svg">
<g clip-path="url(#clip0)">
<path d="M19.378 13.4784C19.78 12.3951 20 11.2234 20 10.0002C20 8.77696 19.78 7.6052 19.378 6.52192L10 5.65234L0.621992 6.52192C0.220039 7.6052 0 8.77696 0 10.0002C0 11.2234 0.220039 12.3951 0.621992 13.4784L10 14.348L19.378 13.4784Z" fill="#6DA544"/>
<path d="M19.3771 6.52176C17.9642 2.71375 14.2987 0 9.9991 0C5.69945 0 2.03402 2.71375 0.621094 6.52176H19.3771Z" fill="#FFDA44"/>
<path d="M9.9991 20.0003C14.2987 20.0003 17.9642 17.2865 19.3771 13.4785H0.621094C2.03402 17.2865 5.69945 20.0003 9.9991 20.0003Z" fill="#E81D25"/>
<path d="M16.8593 8.46066H11.6207L10.0019 3.47852L8.38309 8.46066H3.14453L7.38262 11.5398L5.76379 16.522L10.0019 13.4785L14.24 16.522L12.6213 11.5398L16.8593 8.46066Z" fill="#F0F0F0"/>
</g>
<defs>
<clipPath id="clip0">
<rect width="20" height="20" fill="white"/>
</clipPath>
</defs>
</svg>
