<svg width="77" height="64" viewBox="0 0 77 64" fill="white" xmlns="http://www.w3.org/2000/svg">
<g clip-path="url(#clip0)">
<path d="M42.2042 9.89386C42.2042 9.89386 14.1654 19.4592 8.79863 21.2116C3.46834 22.964 0 19.4227 0 19.4227C0 19.4227 2.66515 24.0228 9.8939 23.3656L41.401 12.6685L42.2042 9.89386Z" fill="white"/>
<path d="M44.6503 0.182068C34.2453 0.182068 25.0085 5.18378 19.2401 12.9237C29.5356 9.45531 40.2327 5.84094 40.8534 5.65839C42.0216 5.2568 44.5407 4.92822 46.1836 6.68064C47.8265 8.43307 46.9503 10.4411 46.9503 10.4411L40.5248 31.032L66.1905 23.0001C66.3365 22.9636 66.5191 22.9271 66.7016 22.9271C67.6874 22.9271 68.4905 23.7303 68.4905 24.716C68.4905 24.8986 68.454 25.0811 68.4175 25.2636V25.3002C68.381 25.3732 68.381 25.4097 68.3445 25.4827L59.984 46.1832C59.9475 46.1467 59.8745 46.1102 59.8379 46.0372C59.7649 46.0007 59.6919 45.9276 59.6189 45.8911C58.4141 45.0149 55.4204 43.1895 51.733 43.7006C52.2076 43.6641 52.7187 43.6641 53.2299 43.7736C54.6902 44.1022 55.822 45.0149 56.5522 46.2927C57.2823 47.534 57.5379 49.1039 57.1728 50.7103C57.0998 50.9659 57.0268 51.2579 56.9538 51.5135C56.0045 54.2517 53.3394 55.9676 50.7107 55.3834C47.8265 54.7628 46.0741 51.6595 46.7678 48.4468C46.7678 48.4102 46.8043 48.3372 46.8043 48.2642C46.2567 47.7896 42.8613 45.0879 38.4438 45.6721C38.9184 45.6356 39.4295 45.6721 39.9041 45.7451C41.3645 46.0737 42.4963 46.9864 43.2264 48.2642C43.9566 49.5055 44.2122 51.0754 43.8471 52.6818C43.7741 52.9373 43.701 53.2294 43.628 53.485C42.6788 56.2231 40.0137 57.9025 37.385 57.3549C34.5008 56.7343 32.7119 53.631 33.4056 50.4182C33.4056 50.3817 33.4421 50.3087 33.4421 50.2722C31.6896 50.1627 30.4118 48.4102 30.9595 46.6213L34.9389 33.7337L37.166 26.2129C37.166 26.2129 34.3183 27.2716 28.7689 29.0971C23.2196 30.9225 19.9338 27.4542 19.9338 27.4542L38.9184 20.9191L39.7581 18.1079C39.7581 18.1079 24.1323 23.5112 18.9115 25.1906C13.6543 26.797 9.89386 23.3652 9.89386 23.3652C9.89386 23.3652 10.624 25.4462 13.3622 26.651C13.0701 28.3669 12.9241 30.1193 12.9241 31.9083C12.9241 49.4325 27.126 63.6344 44.6503 63.6344C62.1745 63.6344 76.3765 49.4325 76.3765 31.9083C76.3765 14.384 62.1745 0.182068 44.6503 0.182068Z" fill="white"/>
<path d="M62.0295 28.55L39.175 35.5232L36.4733 44.2123L57.2469 40.0503L62.0295 28.55Z" fill="white"/>
<path d="M39.1369 50.0171C39.1369 49.9806 39.1734 49.944 39.1734 49.9075V49.871C39.1734 49.8345 39.2099 49.798 39.2099 49.7615C39.2464 49.725 39.2464 49.6885 39.2829 49.6155C39.3194 49.5424 39.3559 49.4694 39.3924 49.3964C39.3924 49.3964 39.3924 49.3964 39.3924 49.3599C39.4289 49.2869 39.5019 49.2139 39.5385 49.1409C39.575 49.1043 39.6115 49.0678 39.648 48.9948C39.6845 48.9218 39.721 48.8853 39.794 48.8488C39.8305 48.8123 39.9035 48.7393 39.9401 48.7027C39.721 48.5932 39.4654 48.4837 39.2099 48.4472C38.0051 48.1916 36.8368 48.7758 36.1796 49.871C36.1796 49.9075 36.1431 49.9075 36.1431 49.944C35.9606 50.2361 35.8146 50.6012 35.7415 50.9663C35.3764 52.6822 36.3257 54.3616 37.859 54.6902C38.7718 54.8727 39.648 54.5807 40.3417 53.96C39.2464 53.3394 38.6257 51.952 38.9178 50.5282C39.0273 50.3091 39.0638 50.1631 39.1369 50.0171Z" fill="white"/>
<path d="M52.4643 48.046C52.4643 48.0095 52.5008 47.973 52.5008 47.9365V47.9C52.5008 47.8635 52.5373 47.827 52.5373 47.7904C52.5738 47.7539 52.5738 47.7174 52.6103 47.6444C52.6468 47.5714 52.6833 47.4619 52.7564 47.3889L52.7929 47.3523C52.7929 47.3158 52.8294 47.3158 52.8294 47.2793C52.8659 47.2428 52.9024 47.2063 52.9024 47.1698C52.9389 47.1333 52.9754 47.0968 53.0119 47.0238C53.0484 46.9507 53.0849 46.9142 53.158 46.8777C53.1945 46.8412 53.2675 46.7682 53.304 46.7317C53.0849 46.6222 52.8294 46.5126 52.5738 46.4761C51.4055 46.2206 50.2007 46.8047 49.5436 47.8635C49.361 48.192 49.1785 48.5571 49.1055 48.9587C48.7404 50.6746 49.6896 52.354 51.223 52.6826C52.1357 52.8652 53.0119 52.5731 53.7056 51.9524C52.5738 51.3318 51.9897 49.9445 52.2817 48.5206C52.3913 48.3381 52.4278 48.192 52.4643 48.046Z" fill="white"/>
</g>
<defs>
<clipPath id="clip0">
<rect width="76.8146" height="64" fill="white"/>
</clipPath>
</defs>
</svg>
