<svg width="77" height="64" viewBox="0 0 77 64" fill="none" xmlns="http://www.w3.org/2000/svg">
<g clip-path="url(#clip0)">
<path d="M42.2042 9.89453C42.2042 9.89453 14.1654 19.4599 8.79863 21.2123C3.46834 22.9647 0 19.4233 0 19.4233C0 19.4233 2.66515 24.0235 9.8939 23.3663L41.401 12.6692L42.2042 9.89453Z" fill="#E81D25"/>
<path d="M44.6509 0.183594C34.2459 0.183594 25.0092 5.18531 19.2408 12.9252C29.5363 9.45684 40.2334 5.84246 40.854 5.65992C42.0223 5.25832 44.5414 4.92974 46.1843 6.68217C47.8272 8.43459 46.951 10.4426 46.951 10.4426L40.5254 31.0336L66.1912 23.0016C66.3372 22.9651 66.5197 22.9286 66.7023 22.9286C67.688 22.9286 68.4912 23.7318 68.4912 24.7175C68.4912 24.9001 68.4547 25.0826 68.4182 25.2652V25.3017C68.3817 25.3747 68.3817 25.4112 68.3452 25.4842L59.9847 46.1847C59.9482 46.1482 59.8751 46.1117 59.8386 46.0387C59.7656 46.0022 59.6926 45.9292 59.6196 45.8927C58.4148 45.0164 55.4211 43.191 51.7337 43.7021C52.2083 43.6656 52.7194 43.6656 53.2305 43.7752C54.6909 44.1037 55.8227 45.0164 56.5528 46.2943C57.283 47.5356 57.5386 49.1054 57.1735 50.7118C57.1005 50.9674 57.0274 51.2595 56.9544 51.515C56.0052 54.2532 53.34 55.9691 50.7114 55.385C47.8272 54.7643 46.0748 51.6611 46.7685 48.4483C46.7685 48.4118 46.805 48.3388 46.805 48.2657C46.2573 47.7911 42.862 45.0895 38.4444 45.6736C38.9191 45.6371 39.4302 45.6736 39.9048 45.7466C41.3652 46.0752 42.4969 46.9879 43.2271 48.2657C43.9573 49.507 44.2128 51.0769 43.8478 52.6833C43.7747 52.9389 43.7017 53.2309 43.6287 53.4865C42.6795 56.2247 40.0143 57.9041 37.3857 57.3564C34.5015 56.7358 32.7126 53.6325 33.4062 50.4198C33.4062 50.3833 33.4427 50.3102 33.4427 50.2737C31.6903 50.1642 30.4125 48.4118 30.9601 46.6228L34.9396 33.7352L37.1666 26.2144C37.1666 26.2144 34.3189 27.2732 28.7696 29.0986C23.2203 30.924 19.9345 27.4557 19.9345 27.4557L38.9191 20.9206L39.7588 18.1094C39.7588 18.1094 24.133 23.5127 18.9122 25.1922C13.6549 26.7985 9.89453 23.3667 9.89453 23.3667C9.89453 23.3667 10.6247 25.4477 13.3629 26.6525C13.0708 28.3684 12.9248 30.1208 12.9248 31.9098C12.9248 49.434 27.1267 63.636 44.6509 63.636C62.1752 63.636 76.3771 49.434 76.3771 31.9098C76.3771 14.3855 62.1752 0.183594 44.6509 0.183594Z" fill="#E81D25"/>
<path d="M62.0289 28.5508L39.1743 35.524L36.4727 44.2131L57.2462 40.0511L62.0289 28.5508Z" fill="#E81D25"/>
<path d="M39.1375 50.0201C39.1375 49.9835 39.174 49.947 39.174 49.9105V49.874C39.174 49.8375 39.2105 49.801 39.2105 49.7645C39.2471 49.728 39.247 49.6915 39.2836 49.6185C39.3201 49.5454 39.3566 49.4724 39.3931 49.3994C39.3931 49.3994 39.3931 49.3994 39.3931 49.3629C39.4296 49.2899 39.5026 49.2169 39.5391 49.1438C39.5756 49.1073 39.6121 49.0708 39.6486 48.9978C39.6852 48.9248 39.7217 48.8883 39.7947 48.8518C39.8312 48.8153 39.9042 48.7422 39.9407 48.7057C39.7217 48.5962 39.4661 48.4867 39.2105 48.4502C38.0058 48.1946 36.8375 48.7788 36.1803 49.874C36.1803 49.9105 36.1438 49.9105 36.1438 49.947C35.9613 50.2391 35.8152 50.6042 35.7422 50.9693C35.3771 52.6852 36.3263 54.3646 37.8597 54.6932C38.7724 54.8757 39.6486 54.5837 40.3423 53.963C39.2471 53.3424 38.6264 51.955 38.9185 50.5312C39.028 50.3121 39.0645 50.1661 39.1375 50.0201Z" fill="#E81D25"/>
<path d="M52.4643 48.0475C52.4643 48.011 52.5008 47.9745 52.5008 47.938V47.9015C52.5008 47.865 52.5373 47.8285 52.5373 47.792C52.5738 47.7555 52.5738 47.719 52.6103 47.6459C52.6468 47.5729 52.6833 47.4634 52.7564 47.3904L52.7929 47.3539C52.7929 47.3174 52.8294 47.3174 52.8294 47.2808C52.8659 47.2443 52.9024 47.2078 52.9024 47.1713C52.9389 47.1348 52.9754 47.0983 53.0119 47.0253C53.0484 46.9523 53.0849 46.9158 53.158 46.8793C53.1945 46.8427 53.2675 46.7697 53.304 46.7332C53.0849 46.6237 52.8294 46.5142 52.5738 46.4777C51.4055 46.2221 50.2007 46.8062 49.5436 47.865C49.361 48.1936 49.1785 48.5587 49.1055 48.9603C48.7404 50.6762 49.6896 52.3556 51.223 52.6841C52.1357 52.8667 53.0119 52.5746 53.7056 51.954C52.5738 51.3333 51.9897 49.946 52.2817 48.5221C52.3913 48.3396 52.4278 48.1936 52.4643 48.0475Z" fill="#E81D25"/>
</g>
<defs>
<clipPath id="clip0">
<rect width="76.8146" height="64" fill="white"/>
</clipPath>
</defs>
</svg>
