<svg width="360" height="176" viewBox="0 0 360 176" fill="none" xmlns="http://www.w3.org/2000/svg">
<g clip-path="url(#clip0)">
<path d="M292.972 34.6528H67.5681C64.5011 34.6493 61.5608 33.4294 59.3921 31.2607C57.2234 29.092 56.0035 26.1516 56 23.0846V12.5681C56.0035 9.50114 57.2234 6.56076 59.3921 4.39206C61.5608 2.22336 64.5011 1.00347 67.5681 1H292.972C296.039 1.00346 298.979 2.22336 301.148 4.39205C303.316 6.56075 304.536 9.50114 304.54 12.5681V23.0846C304.536 26.1516 303.316 29.092 301.148 31.2607C298.979 33.4294 296.039 34.6493 292.972 34.6528ZM67.5681 1.7011C64.687 1.70436 61.9248 2.85033 59.8876 4.88759C57.8503 6.92485 56.7044 9.68703 56.7011 12.5681V23.0846C56.7044 25.9657 57.8503 28.7279 59.8876 30.7652C61.9248 32.8024 64.687 33.9484 67.5681 33.9517H292.972C295.853 33.9484 298.615 32.8024 300.652 30.7652C302.689 28.7279 303.835 25.9657 303.839 23.0846V12.5681C303.835 9.68703 302.689 6.92485 300.652 4.88759C298.615 2.85033 295.853 1.70436 292.972 1.7011H67.5681Z" fill="#3F3D56"/>
<path d="M234.431 11.1641H84.7464C81.0679 11.1641 78.0859 14.146 78.0859 17.8245V17.8245C78.0859 21.503 81.0679 24.4849 84.7464 24.4849H234.431C238.11 24.4849 241.092 21.503 241.092 17.8245C241.092 14.146 238.11 11.1641 234.431 11.1641Z" fill="#E6E6E6"/>
<path d="M254.06 69.582H104.375C100.697 69.582 97.7148 72.564 97.7148 76.2425V76.2425C97.7148 79.9209 100.697 82.9029 104.375 82.9029H254.06C257.738 82.9029 260.72 79.9209 260.72 76.2425C260.72 72.564 257.738 69.582 254.06 69.582Z" fill="#E81D25"/>
<path d="M254.06 111.938H104.375C100.697 111.938 97.7148 114.919 97.7148 118.598V118.598C97.7148 122.276 100.697 125.258 104.375 125.258H254.06C257.738 125.258 260.72 122.276 260.72 118.598C260.72 114.919 257.738 111.938 254.06 111.938Z" fill="#E6E6E6"/>
<path d="M254.06 154.289H104.375C100.697 154.289 97.7148 157.271 97.7148 160.95V160.95C97.7148 164.628 100.697 167.61 104.375 167.61H254.06C257.738 167.61 260.72 164.628 260.72 160.95C260.72 157.271 257.738 154.289 254.06 154.289Z" fill="#E6E6E6"/>
<path d="M282.628 25.0198C282.468 25.2477 282.225 25.4029 281.951 25.4512C281.677 25.4995 281.395 25.437 281.167 25.2775L275.443 21.2951C275.216 21.1355 275.06 20.892 275.012 20.618C274.964 20.344 275.026 20.062 275.186 19.8341C275.345 19.6062 275.589 19.451 275.863 19.4027C276.137 19.3543 276.419 19.4169 276.647 19.5764L282.37 23.5588C282.598 23.7184 282.753 23.9619 282.802 24.2359C282.85 24.5099 282.787 24.7919 282.628 25.0198Z" fill="#E81D25"/>
<path d="M276.13 20.496C275.285 21.7026 274.101 22.6315 272.728 23.1653C271.356 23.6992 269.855 23.814 268.417 23.4952C266.979 23.1764 265.668 22.4384 264.65 21.3744C263.631 20.3105 262.951 18.9683 262.695 17.5178C262.439 16.0673 262.619 14.5735 263.213 13.2253C263.806 11.8771 264.786 10.7351 266.028 9.94369C267.27 9.15228 268.719 8.747 270.192 8.77911C271.664 8.81123 273.094 9.27929 274.301 10.1241C275.917 11.2584 277.017 12.9874 277.36 14.9319C277.703 16.8763 277.26 18.8774 276.13 20.496ZM265.454 13.0209C264.82 13.9259 264.469 14.9983 264.445 16.1028C264.421 17.2072 264.725 18.2939 265.319 19.2256C265.912 20.1573 266.769 20.892 267.78 21.3369C268.791 21.7818 269.911 21.9169 270.999 21.725C272.087 21.5332 273.094 21.0231 273.892 20.2592C274.69 19.4952 275.243 18.5119 275.482 17.4334C275.721 16.3549 275.635 15.2297 275.235 14.2001C274.834 13.1705 274.138 12.2828 273.233 11.6492C272.019 10.8012 270.518 10.4694 269.06 10.7266C267.601 10.9837 266.305 11.8089 265.454 13.0209Z" fill="#E81D25"/>
<path d="M286.487 89.2558H74.0537C73.9607 89.2558 73.8715 89.2189 73.8058 89.1531C73.7401 89.0874 73.7031 88.9982 73.7031 88.9052C73.7031 88.8123 73.7401 88.7231 73.8058 88.6574C73.8715 88.5916 73.9607 88.5547 74.0537 88.5547H286.487C286.58 88.5547 286.669 88.5916 286.735 88.6574C286.8 88.7231 286.837 88.8123 286.837 88.9052C286.837 88.9982 286.8 89.0874 286.735 89.1531C286.669 89.2189 286.58 89.2558 286.487 89.2558Z" fill="#3F3D56"/>
<path d="M286.487 131.631H74.0537C73.9607 131.631 73.8715 131.594 73.8058 131.528C73.7401 131.462 73.7031 131.373 73.7031 131.28C73.7031 131.187 73.7401 131.098 73.8058 131.032C73.8715 130.967 73.9607 130.93 74.0537 130.93H286.487C286.58 130.93 286.669 130.967 286.735 131.032C286.8 131.098 286.837 131.187 286.837 131.28C286.837 131.373 286.8 131.462 286.735 131.528C286.669 131.594 286.58 131.631 286.487 131.631Z" fill="#3F3D56"/>
<path d="M286.487 173.998H74.0537C73.9607 173.998 73.8715 173.961 73.8058 173.895C73.7401 173.83 73.7031 173.74 73.7031 173.647C73.7031 173.554 73.7401 173.465 73.8058 173.4C73.8715 173.334 73.9607 173.297 74.0537 173.297H286.487C286.58 173.297 286.669 173.334 286.735 173.4C286.8 173.465 286.837 173.554 286.837 173.647C286.837 173.74 286.8 173.83 286.735 173.895C286.669 173.961 286.58 173.998 286.487 173.998Z" fill="#3F3D56"/>
</g>
<defs>
<clipPath id="clip0">
<rect width="248.54" height="173" fill="white" transform="translate(56 1)"/>
</clipPath>
</defs>
</svg>
