<svg width="360" height="176" viewBox="0 0 360 176" fill="none" xmlns="http://www.w3.org/2000/svg">
<g clip-path="url(#clip0_5130:14448)">
<path d="M98.7809 164.134C97.8791 164.134 96.9754 164.177 96.0929 164.263L95.9645 164.275C90.1108 164.871 85.8291 168.327 86.0052 172.315L86.0393 173.036C86.0617 173.492 86.0857 173.982 86.1053 174.525C86.116 174.793 86.4338 174.999 86.8292 174.999H230.815C240.967 174.928 251.082 174.839 260.877 174.734C262.716 174.738 264.552 174.628 266.377 174.406C269.099 174.035 270.989 173.299 272.154 172.158H272.154C273.603 170.742 273.649 168.96 273.561 166.946C273.383 162.879 273.206 158.607 273.029 154.348C272.873 150.594 272.718 146.85 272.562 143.266C272.466 141.139 272.253 139.262 270.608 137.827C268.824 136.275 265.572 135.488 260.94 135.488C260.884 135.488 260.829 135.488 260.772 135.489C246.257 135.548 231.876 141.293 224.985 149.785C224.192 150.763 223.453 151.81 222.738 152.823C221.692 154.377 220.539 155.856 219.285 157.248C218.589 157.998 217.826 158.684 217.005 159.295C216.949 159.339 216.885 159.387 216.817 159.432C216.662 159.548 216.5 159.66 216.342 159.76C215.429 160.369 214.454 160.879 213.434 161.282L213.332 161.322C213.255 161.353 213.172 161.385 213.089 161.414C212.5 161.631 211.901 161.815 211.292 161.967C208.666 162.633 205.679 162.793 202.416 162.441C199.402 162.105 196.439 161.41 193.59 160.37C190.568 159.271 187.739 157.9 185.004 156.575C183.802 155.992 182.56 155.39 181.318 154.819C181.085 154.712 180.856 154.607 180.623 154.502C179.107 153.822 177.732 153.26 176.421 152.785C173.2 151.608 169.83 150.89 166.409 150.65C162.799 150.423 159.618 150.852 156.956 151.922C156.217 152.219 155.502 152.574 154.818 152.983C151.665 154.868 149.721 157.65 147.842 160.34C145.504 163.686 143.086 167.146 138.312 168.94C132.804 171.012 124.763 170.151 119.074 168.654C117.286 168.184 115.499 167.642 113.772 167.119C113.074 166.907 112.376 166.697 111.677 166.488C110.304 166.08 109.18 165.767 108.14 165.503L107.812 165.419C107.629 165.373 107.446 165.328 107.259 165.284C106.024 164.986 104.875 164.751 103.742 164.566L103.474 164.521C102.937 164.44 102.435 164.372 101.942 164.315L101.745 164.292C100.761 164.186 99.7712 164.133 98.7809 164.134V164.134Z" fill="#F2F2F2"/>
<path d="M177.192 86.2405C176.759 86.3031 176.317 86.2698 175.898 86.1432C175.478 86.0165 175.092 85.7995 174.765 85.5073C174.439 85.2152 174.181 84.8551 174.008 84.4524C173.836 84.0496 173.754 83.614 173.768 83.1762L163.828 79.3562L168.329 76.1367L177.078 80.2578C177.812 80.3306 178.494 80.6702 178.995 81.2123C179.495 81.7543 179.779 82.4611 179.793 83.1986C179.807 83.9362 179.55 84.6532 179.071 85.2139C178.591 85.7746 177.923 86.1399 177.192 86.2406L177.192 86.2405Z" fill="#FFB7B7"/>
<path d="M171.513 83.5005L173.065 78.0259L172.988 77.9738L158.45 68.0981L145.883 55.4883L138.562 58.4131L139.043 60.7302L139.075 60.7586L155.783 75.7245L155.799 75.7321L171.513 83.5005Z" fill="#3F3D56"/>
<path d="M156.621 96.0068L134.121 92.8529L136.101 79.0469H152.666L156.621 96.0068Z" fill="#FFB6B6"/>
<path d="M118.391 163.607L123.006 164.679L129.339 147.388L122.528 145.805L118.391 163.607Z" fill="#FFB6B6"/>
<path d="M114.094 171.039L117.404 171.808L118.721 168.821L119.507 172.297L128.286 174.337C128.707 174.435 129.148 174.396 129.545 174.225C129.942 174.055 130.273 173.762 130.492 173.389C130.711 173.016 130.804 172.584 130.76 172.154C130.715 171.724 130.534 171.32 130.243 171.001L124.358 164.53L125.092 161.371L117.616 160.098L114.094 171.039Z" fill="#2F2E41"/>
<path d="M146.867 166.182H151.606L153.86 147.906H146.867V166.182Z" fill="#FFB6B6"/>
<path d="M144.367 174.391H147.765L148.372 171.183L149.925 174.391H158.938C159.37 174.391 159.79 174.253 160.138 173.997C160.486 173.741 160.743 173.381 160.872 172.968C161 172.556 160.994 172.113 160.853 171.705C160.712 171.296 160.444 170.944 160.089 170.698L152.892 165.728V162.484L145.322 162.936L144.367 174.391Z" fill="#2F2E41"/>
<path d="M133.835 90.5081L155.838 88.7578C162.331 103.925 158.203 128.138 153.213 155.395L146.135 156.31L145.587 112.512L127.845 153.258L120.469 152.881L133.835 90.5081Z" fill="#2F2E41"/>
<path d="M146.645 50.5675V43.1234C146.645 40.4779 145.594 37.9407 143.723 36.07C141.853 34.1994 139.316 33.1484 136.67 33.1484C134.025 33.1484 131.487 34.1994 129.617 36.07C127.746 37.9407 126.695 40.4779 126.695 43.1234C124.937 46.7869 126.037 48.5287 126.695 50.5675C126.696 50.9225 126.837 51.2628 127.088 51.5139C127.339 51.7649 127.679 51.9062 128.034 51.9068H145.305C145.66 51.9064 146.001 51.7652 146.252 51.5141C146.503 51.2631 146.644 50.9226 146.645 50.5675Z" fill="#2F2E41"/>
<path d="M139.13 51.7947C143.169 51.7947 146.443 48.5204 146.443 44.4813C146.443 40.4423 143.169 37.168 139.13 37.168C135.091 37.168 131.816 40.4423 131.816 44.4813C131.816 48.5204 135.091 51.7947 139.13 51.7947Z" fill="#FFB7B7"/>
<path d="M149.004 43.7187C149.002 41.6267 148.17 39.6211 146.691 38.1418C145.211 36.6626 143.206 35.8305 141.114 35.8281H139.625C137.533 35.8305 135.527 36.6626 134.048 38.1418C132.569 39.6211 131.737 41.6267 131.734 43.7187V43.8676C132.849 44.6299 133.908 44.7414 134.881 43.8676L135.954 40.8627L136.168 43.8676H137.795L138.337 42.3516L138.445 43.8676C140.642 45.7384 144.796 44.8419 149.004 43.8676V43.7187Z" fill="#2F2E41"/>
<path d="M134.864 83.0805L153.485 82.3719L154.525 70.1904C155.328 67.9607 155.341 66.0449 154.564 64.5002C153.896 63.2305 152.773 62.2598 151.419 61.7823L147.345 56.8612C146.821 56.2287 146.163 55.7206 145.418 55.3735C144.674 55.0264 143.862 54.849 143.04 54.8541L132.453 54.9265C132.198 54.7731 130.65 53.9864 127.597 55.3092C124.286 56.7442 125.055 61.7297 125.063 61.7797L125.071 61.8266L125.107 61.8585L132.149 67.7898L134.864 83.0805Z" fill="#3F3D56"/>
<path d="M219.722 61.662C207.706 75.2031 171.554 77.786 148.022 102.642C140.133 78.6164 151.309 37.1433 162.447 21.3274C167.796 13.7323 175.943 8.57314 185.095 6.98474C194.248 5.39633 203.657 7.50884 211.252 12.8575C227.068 23.9956 232.561 47.1928 219.722 61.662Z" fill="#E81D25"/>
<path d="M190.607 48.6743C196.915 48.6743 202.03 43.56 202.03 37.2512C202.03 30.9424 196.915 25.8281 190.607 25.8281C184.298 25.8281 179.184 30.9424 179.184 37.2512C179.184 43.56 184.298 48.6743 190.607 48.6743Z" fill="white"/>
<path d="M138.365 115.085C142.497 115.085 145.847 111.735 145.847 107.603C145.847 103.471 142.497 100.121 138.365 100.121C134.233 100.121 130.883 103.471 130.883 107.603C130.883 111.735 134.233 115.085 138.365 115.085Z" fill="#E81D25"/>
<path d="M129.804 107.061C129.478 106.768 129.221 106.408 129.049 106.005C128.878 105.602 128.797 105.166 128.812 104.728C128.827 104.291 128.937 103.861 129.136 103.471C129.335 103.081 129.617 102.739 129.962 102.469L126.523 92.3906L131.881 93.7823L134.322 103.139C134.737 103.749 134.914 104.49 134.818 105.222C134.723 105.954 134.363 106.625 133.805 107.108C133.248 107.592 132.533 107.854 131.795 107.846C131.057 107.837 130.349 107.558 129.803 107.061L129.804 107.061Z" fill="#FFB7B7"/>
<path d="M128.268 100.945L133.466 98.629L131.719 81.0478L133.346 63.3196L126.406 59.5742L124.935 61.4282V61.4703L124.156 83.8881L124.16 83.905L128.268 100.945Z" fill="#3F3D56"/>
<path d="M252.205 134.289C251.841 135.652 250.887 136.787 249.734 137.614C249.547 137.749 249.354 137.874 249.158 137.992C249.098 138.027 249.038 138.065 248.975 138.097C248.908 138.137 248.84 138.175 248.772 138.21H243.354C243.256 138.012 243.161 137.812 243.065 137.614C240.743 132.734 239.112 127.467 239.39 122.104C239.501 120.023 239.938 117.973 240.685 116.028C242.174 112.153 244.889 108.798 248.625 107.11C248.717 107.067 248.815 107.024 248.91 106.984C248.88 107.092 248.85 107.197 248.82 107.305C248.419 108.749 248.136 110.222 247.973 111.712C247.958 111.827 247.946 111.942 247.936 112.06C247.58 115.652 247.896 119.279 248.868 122.755C248.87 122.763 248.873 122.773 248.875 122.78C249.088 123.549 249.335 124.307 249.617 125.052C249.837 125.641 250.075 126.222 250.336 126.794C251.423 129.191 252.881 131.746 252.205 134.289Z" fill="#E6E6E6"/>
<path d="M248.978 107.101C248.925 107.171 248.872 107.239 248.82 107.309C247.719 108.767 246.785 110.343 246.034 112.009C245.994 112.091 245.956 112.174 245.924 112.259C244.895 114.584 244.234 117.056 243.965 119.584C243.962 119.602 243.96 119.619 243.96 119.637C243.897 120.228 243.859 120.825 243.844 121.421C243.789 122.538 243.91 123.658 244.203 124.738C244.47 125.62 244.938 126.428 245.57 127.098C245.633 127.165 245.696 127.233 245.763 127.298C245.813 127.351 245.869 127.403 245.921 127.454C246.427 127.937 246.981 128.386 247.457 128.904C247.675 129.137 247.872 129.388 248.046 129.656C248.323 130.104 248.502 130.606 248.571 131.128C248.64 131.651 248.597 132.182 248.447 132.687C248.106 133.955 247.327 135.024 246.53 136.044C246.132 136.555 245.721 137.071 245.365 137.617C245.235 137.813 245.114 138.011 245.004 138.214H244.689C244.794 138.011 244.909 137.813 245.034 137.617C245.949 136.177 247.249 134.939 247.923 133.353C248.379 132.284 248.517 131.071 247.94 130.021C247.772 129.716 247.567 129.432 247.332 129.175C246.873 128.656 246.325 128.213 245.826 127.744C245.701 127.626 245.578 127.506 245.46 127.381C244.836 126.747 244.354 125.986 244.047 125.151C243.7 124.09 243.535 122.978 243.561 121.862C243.561 121.15 243.599 120.434 243.669 119.722C243.676 119.632 243.687 119.539 243.697 119.447C244.209 114.969 245.91 110.711 248.624 107.113C248.675 107.043 248.727 106.975 248.78 106.908C248.887 106.768 249.085 106.963 248.978 107.101Z" fill="white"/>
<path d="M243.798 119.744C242.93 119.598 242.143 119.148 241.576 118.476C241.009 117.803 240.7 116.95 240.703 116.07C240.704 116.034 240.718 116 240.743 115.975C240.769 115.949 240.803 115.934 240.839 115.934C240.874 115.933 240.909 115.946 240.936 115.97C240.962 115.995 240.978 116.028 240.98 116.064C240.975 116.884 241.263 117.678 241.792 118.303C242.322 118.929 243.057 119.344 243.866 119.475C244.042 119.504 243.973 119.772 243.798 119.744V119.744Z" fill="white"/>
<path d="M245.499 127.145C246.973 126.114 248.005 124.566 248.388 122.809C248.426 122.634 248.694 122.702 248.657 122.876C248.254 124.704 247.177 126.313 245.641 127.382C245.494 127.484 245.353 127.246 245.499 127.145H245.499Z" fill="white"/>
<path d="M245.953 111.98C246.277 112.106 246.627 112.15 246.972 112.108C247.317 112.065 247.646 111.938 247.93 111.736C248.075 111.633 248.216 111.871 248.072 111.974C247.757 112.195 247.394 112.335 247.012 112.383C246.631 112.431 246.244 112.385 245.885 112.248C245.85 112.238 245.82 112.215 245.801 112.184C245.783 112.153 245.777 112.116 245.785 112.08C245.794 112.045 245.816 112.014 245.848 111.996C245.879 111.977 245.917 111.971 245.953 111.98Z" fill="white"/>
<path d="M267.773 116.788C267.685 116.856 267.595 116.924 267.507 116.994C266.318 117.904 265.205 118.909 264.178 120C264.098 120.083 264.018 120.168 263.94 120.253L263.937 120.256C261.503 122.898 259.579 125.967 258.26 129.31L258.253 129.332C258.25 129.34 258.248 129.345 258.245 129.352C257.723 130.69 257.302 132.065 256.985 133.466C256.68 134.834 256.429 136.299 255.951 137.617C255.878 137.82 255.798 138.02 255.713 138.213H244.574C244.612 138.015 244.652 137.815 244.692 137.617C245.259 134.714 246.144 131.883 247.333 129.174C247.373 129.084 247.413 128.994 247.458 128.904C248.071 127.565 248.793 126.279 249.615 125.058C249.615 125.058 249.615 125.057 249.615 125.057C249.615 125.057 249.615 125.057 249.616 125.056C249.616 125.056 249.616 125.056 249.616 125.056C249.617 125.056 249.617 125.056 249.617 125.056C250.069 124.389 250.554 123.746 251.07 123.129C252.41 121.535 253.993 120.162 255.76 119.061C255.77 119.053 255.783 119.048 255.793 119.04C259.31 116.858 263.479 115.819 267.465 116.718H267.467C267.57 116.741 267.67 116.763 267.773 116.788Z" fill="#E6E6E6"/>
<path d="M267.758 116.921C267.673 116.944 267.588 116.969 267.505 116.994C265.75 117.496 264.055 118.19 262.452 119.066C262.372 119.108 262.292 119.153 262.212 119.199C259.997 120.435 257.987 122.006 256.252 123.856C256.25 123.857 256.25 123.859 256.249 123.861C256.229 123.881 256.207 123.903 256.189 123.923C255.788 124.354 255.402 124.803 255.037 125.264C254.321 126.123 253.745 127.089 253.328 128.127C253.01 128.992 252.897 129.92 253 130.835C253.007 130.928 253.02 131.018 253.032 131.111C253.043 131.184 253.053 131.256 253.065 131.332C253.23 132.336 253.516 133.343 253.436 134.368C253.387 134.893 253.228 135.402 252.968 135.861C252.709 136.32 252.355 136.719 251.93 137.031C251.641 137.254 251.333 137.45 251.008 137.617C250.544 137.857 250.061 138.056 249.563 138.214H248.578C248.711 138.176 248.841 138.138 248.974 138.101C249.445 137.968 249.908 137.806 250.359 137.617C250.617 137.509 250.868 137.386 251.111 137.246C252.118 136.668 252.957 135.781 253.133 134.596C253.286 133.559 252.99 132.522 252.815 131.507C252.784 131.332 252.757 131.159 252.742 130.986C252.622 130.107 252.695 129.213 252.955 128.365C253.315 127.308 253.854 126.32 254.548 125.444C254.977 124.874 255.436 124.326 255.921 123.803C255.981 123.736 256.044 123.668 256.109 123.6C257.88 121.737 259.926 120.154 262.174 118.908H262.177C263.849 117.977 265.622 117.242 267.463 116.718H267.465C267.548 116.693 267.633 116.668 267.716 116.646C267.889 116.601 267.929 116.874 267.758 116.921Z" fill="white"/>
<path d="M256.009 123.898C255.403 123.259 255.045 122.426 254.998 121.547C254.95 120.669 255.216 119.802 255.749 119.101C255.857 118.96 256.082 119.122 255.974 119.263C255.476 119.915 255.228 120.722 255.274 121.54C255.32 122.358 255.657 123.133 256.224 123.724C256.347 123.853 256.131 124.026 256.009 123.898V123.898Z" fill="white"/>
<path d="M252.915 130.834C254.712 130.899 256.468 130.284 257.832 129.111C257.968 128.995 258.141 129.211 258.006 129.327C256.584 130.544 254.755 131.181 252.885 131.109C252.707 131.102 252.738 130.827 252.915 130.834V130.834Z" fill="white"/>
<path d="M262.405 118.993C262.587 119.289 262.84 119.535 263.142 119.709C263.443 119.882 263.782 119.979 264.13 119.989C264.308 119.994 264.277 120.269 264.1 120.264C263.716 120.251 263.341 120.144 263.008 119.953C262.675 119.761 262.394 119.491 262.189 119.166C262.167 119.137 262.157 119.101 262.161 119.065C262.165 119.029 262.182 118.995 262.21 118.972C262.239 118.949 262.275 118.938 262.312 118.942C262.348 118.946 262.381 118.964 262.405 118.993V118.993Z" fill="white"/>
<path d="M184.701 170.305C184.338 171.668 183.383 172.803 182.231 173.629C182.043 173.765 181.85 173.89 181.654 174.008C181.594 174.043 181.534 174.08 181.471 174.113C181.404 174.153 181.336 174.191 181.269 174.226H175.85C175.752 174.028 175.657 173.827 175.562 173.629C173.239 168.749 171.608 163.483 171.886 158.119C171.997 156.039 172.434 153.989 173.182 152.044C174.67 148.168 177.385 144.814 181.121 143.125C181.213 143.083 181.311 143.04 181.406 143C181.376 143.108 181.346 143.213 181.316 143.321C180.915 144.764 180.632 146.238 180.469 147.727C180.454 147.843 180.442 147.958 180.432 148.076C180.076 151.668 180.392 155.294 181.364 158.771C181.366 158.778 181.369 158.788 181.371 158.796C181.584 159.565 181.831 160.322 182.113 161.068C182.333 161.657 182.571 162.238 182.832 162.809C183.919 165.207 185.377 167.762 184.701 170.305Z" fill="#E6E6E6"/>
<path d="M181.478 143.109C181.425 143.179 181.372 143.246 181.32 143.316C180.219 144.775 179.285 146.351 178.534 148.016C178.494 148.099 178.456 148.182 178.424 148.267C177.395 150.592 176.734 153.064 176.465 155.592C176.462 155.61 176.46 155.627 176.46 155.645C176.397 156.236 176.359 156.832 176.344 157.429C176.289 158.546 176.41 159.666 176.703 160.746C176.97 161.628 177.438 162.435 178.07 163.106C178.133 163.173 178.196 163.241 178.263 163.306C178.313 163.359 178.369 163.411 178.421 163.461C178.927 163.945 179.481 164.393 179.957 164.912C180.175 165.144 180.372 165.396 180.546 165.663C180.823 166.112 181.002 166.614 181.071 167.136C181.14 167.659 181.097 168.19 180.946 168.695C180.606 169.962 179.827 171.032 179.03 172.052C178.632 172.563 178.221 173.079 177.865 173.625C177.735 173.821 177.614 174.019 177.504 174.221H177.189C177.294 174.019 177.409 173.821 177.534 173.625C178.449 172.185 179.749 170.947 180.423 169.361C180.879 168.291 181.017 167.079 180.44 166.029C180.272 165.724 180.067 165.44 179.832 165.182C179.373 164.664 178.825 164.22 178.326 163.752C178.201 163.634 178.078 163.514 177.96 163.389C177.336 162.754 176.854 161.994 176.547 161.159C176.2 160.098 176.035 158.986 176.061 157.87C176.061 157.158 176.099 156.442 176.169 155.73C176.176 155.64 176.187 155.547 176.197 155.455C176.709 150.977 178.41 146.719 181.124 143.121C181.175 143.051 181.227 142.983 181.28 142.916C181.387 142.775 181.585 142.971 181.478 143.109Z" fill="white"/>
<path d="M176.294 155.759C175.427 155.614 174.639 155.164 174.072 154.491C173.505 153.818 173.196 152.966 173.199 152.086C173.2 152.05 173.214 152.016 173.239 151.99C173.265 151.965 173.299 151.95 173.335 151.949C173.371 151.948 173.405 151.962 173.432 151.986C173.458 152.01 173.474 152.044 173.476 152.08C173.471 152.899 173.759 153.693 174.289 154.319C174.818 154.944 175.553 155.36 176.362 155.491C176.538 155.52 176.469 155.788 176.294 155.759V155.759Z" fill="white"/>
<path d="M177.999 163.16C179.473 162.13 180.505 160.582 180.888 158.824C180.926 158.65 181.194 158.718 181.156 158.892C180.754 160.72 179.677 162.329 178.141 163.398C177.994 163.5 177.853 163.262 177.999 163.16V163.16Z" fill="white"/>
<path d="M178.449 147.992C178.773 148.118 179.123 148.162 179.468 148.119C179.813 148.077 180.143 147.949 180.426 147.748C180.571 147.645 180.712 147.883 180.568 147.986C180.254 148.207 179.89 148.347 179.509 148.395C179.127 148.443 178.74 148.396 178.381 148.26C178.346 148.25 178.316 148.227 178.298 148.196C178.279 148.165 178.273 148.127 178.281 148.092C178.29 148.056 178.313 148.026 178.344 148.007C178.375 147.988 178.413 147.983 178.449 147.992V147.992Z" fill="white"/>
<path d="M200.269 152.8C200.181 152.868 200.091 152.935 200.004 153.005C198.814 153.916 197.701 154.921 196.674 156.012C196.594 156.094 196.514 156.18 196.436 156.265L196.434 156.267C193.999 158.91 192.075 161.979 190.757 165.321L190.749 165.344C190.747 165.351 190.744 165.356 190.742 165.364C190.219 166.702 189.798 168.077 189.481 169.478C189.176 170.845 188.925 172.311 188.447 173.629C188.374 173.832 188.294 174.032 188.209 174.225H177.07C177.108 174.027 177.148 173.827 177.188 173.629C177.755 170.726 178.64 167.894 179.829 165.186C179.869 165.096 179.909 165.006 179.954 164.915C180.567 163.577 181.289 162.291 182.111 161.07C182.111 161.07 182.111 161.069 182.111 161.069C182.111 161.069 182.111 161.068 182.112 161.068C182.112 161.068 182.112 161.068 182.112 161.068C182.113 161.067 182.113 161.067 182.113 161.067C182.565 160.401 183.05 159.758 183.566 159.141C184.906 157.547 186.489 156.174 188.256 155.072C188.266 155.065 188.279 155.06 188.289 155.052C191.806 152.87 195.975 151.83 199.961 152.73H199.963C200.066 152.752 200.166 152.775 200.269 152.8Z" fill="#E6E6E6"/>
<path d="M200.258 152.933C200.173 152.955 200.088 152.981 200.005 153.006C198.25 153.507 196.555 154.202 194.952 155.077C194.872 155.12 194.792 155.165 194.712 155.21C192.497 156.446 190.487 158.017 188.752 159.868C188.75 159.869 188.75 159.871 188.749 159.873C188.729 159.893 188.707 159.915 188.689 159.935C188.288 160.366 187.902 160.815 187.537 161.275C186.821 162.135 186.245 163.101 185.828 164.139C185.51 165.004 185.397 165.931 185.5 166.847C185.507 166.94 185.52 167.03 185.532 167.123C185.543 167.195 185.553 167.268 185.565 167.343C185.73 168.348 186.016 169.355 185.936 170.38C185.887 170.905 185.728 171.413 185.468 171.872C185.209 172.331 184.855 172.73 184.43 173.043C184.141 173.266 183.833 173.462 183.508 173.629C183.044 173.868 182.561 174.068 182.063 174.225H181.078C181.211 174.188 181.341 174.15 181.474 174.112C181.945 173.98 182.408 173.818 182.859 173.629C183.117 173.521 183.368 173.397 183.611 173.258C184.618 172.679 185.457 171.793 185.633 170.608C185.786 169.57 185.49 168.533 185.315 167.519C185.284 167.343 185.257 167.17 185.242 166.997C185.122 166.119 185.195 165.225 185.455 164.377C185.815 163.319 186.354 162.331 187.048 161.456C187.477 160.886 187.936 160.338 188.421 159.815C188.481 159.747 188.544 159.68 188.609 159.612C190.38 157.749 192.426 156.166 194.674 154.92H194.677C196.349 153.989 198.122 153.254 199.963 152.73H199.965C200.048 152.705 200.133 152.68 200.216 152.657C200.389 152.612 200.429 152.885 200.258 152.933Z" fill="white"/>
<path d="M188.509 159.91C187.904 159.271 187.545 158.438 187.498 157.559C187.45 156.681 187.716 155.814 188.249 155.113C188.357 154.972 188.582 155.133 188.474 155.275C187.976 155.926 187.728 156.734 187.774 157.552C187.82 158.37 188.157 159.145 188.724 159.736C188.847 159.865 188.631 160.038 188.509 159.91V159.91Z" fill="white"/>
<path d="M185.411 166.846C187.208 166.911 188.964 166.296 190.329 165.123C190.464 165.007 190.637 165.223 190.502 165.339C189.08 166.556 187.252 167.192 185.381 167.121C185.203 167.114 185.234 166.839 185.411 166.846V166.846Z" fill="white"/>
<path d="M194.905 155.004C195.087 155.3 195.34 155.546 195.642 155.72C195.943 155.894 196.282 155.99 196.63 156.001C196.808 156.005 196.777 156.28 196.6 156.276C196.216 156.263 195.841 156.156 195.508 155.964C195.175 155.773 194.894 155.503 194.689 155.178C194.667 155.149 194.657 155.113 194.661 155.077C194.665 155.04 194.682 155.007 194.71 154.983C194.739 154.961 194.775 154.95 194.812 154.954C194.848 154.958 194.881 154.976 194.905 155.004V155.004Z" fill="white"/>
<path d="M196.749 102.091C198.409 102.091 199.755 100.745 199.755 99.0844C199.755 97.4241 198.409 96.0781 196.749 96.0781C195.088 96.0781 193.742 97.4241 193.742 99.0844C193.742 100.745 195.088 102.091 196.749 102.091Z" fill="#F2F2F2"/>
<path d="M234.096 66.079C235.757 66.079 237.102 64.7331 237.102 63.0727C237.102 61.4124 235.757 60.0664 234.096 60.0664C232.436 60.0664 231.09 61.4124 231.09 63.0727C231.09 64.7331 232.436 66.079 234.096 66.079Z" fill="#F2F2F2"/>
<path d="M130.877 6.01264C132.538 6.01264 133.884 4.66667 133.884 3.00632C133.884 1.34598 132.538 0 130.877 0C129.217 0 127.871 1.34598 127.871 3.00632C127.871 4.66667 129.217 6.01264 130.877 6.01264Z" fill="#F2F2F2"/>
<path d="M86.3124 174.703H273.276C273.359 174.703 273.438 174.67 273.497 174.611C273.555 174.553 273.588 174.473 273.588 174.391C273.588 174.308 273.555 174.228 273.497 174.17C273.438 174.111 273.359 174.078 273.276 174.078H86.3124C86.2296 174.078 86.1501 174.111 86.0915 174.17C86.0329 174.228 86 174.308 86 174.391C86 174.473 86.0329 174.553 86.0915 174.611C86.1501 174.67 86.2296 174.703 86.3124 174.703V174.703Z" fill="#CCCCCC"/>
<path opacity="0.2" d="M200.488 31.7812C201.858 34.1225 202.349 36.8747 201.875 39.5452C201.401 42.2158 199.992 44.6304 197.9 46.3568C195.808 48.0833 193.17 49.0089 190.458 48.968C187.746 48.9272 185.137 47.9225 183.098 46.1337C183.932 47.5633 185.068 48.7944 186.425 49.7417C187.783 50.6891 189.33 51.33 190.96 51.6201C192.59 51.9102 194.263 51.8427 195.865 51.422C197.466 51.0014 198.956 50.2378 200.233 49.1841C201.51 48.1304 202.542 46.8117 203.259 45.3195C203.976 43.8272 204.359 42.197 204.384 40.5417C204.408 38.8865 204.072 37.2457 203.4 35.733C202.727 34.2204 201.734 32.872 200.488 31.7812V31.7812Z" fill="#231F20"/>
<path opacity="0.2" d="M214.516 16.1992C223.893 28.3237 225.511 45.7488 215.12 57.4585C203.511 70.5416 169.372 73.3973 145.852 95.9938C146.243 98.3504 146.808 100.675 147.543 102.948C171.075 78.0919 207.227 75.5091 219.242 61.968C231.008 48.7084 227.377 28.1207 214.516 16.1992Z" fill="#231F20"/>
</g>
<defs>
<clipPath id="clip0_5130:14448">
<rect width="187.588" height="175" fill="white" transform="translate(86)"/>
</clipPath>
</defs>
</svg>
