<svg width="360" height="176" viewBox="0 0 360 176" fill="none" xmlns="http://www.w3.org/2000/svg">
<g clip-path="url(#clip0_5130:14784)">
<path d="M203.814 39.359H155.505C154.405 39.3604 153.349 39.7983 152.571 40.5767C151.792 41.3551 151.354 42.4105 151.353 43.5114V150.877L150.799 151.046L138.949 154.675C138.387 154.846 137.78 154.788 137.262 154.512C136.743 154.236 136.355 153.766 136.183 153.205L100.933 38.0607C100.761 37.4991 100.819 36.8923 101.095 36.3737C101.371 35.8552 101.841 35.4673 102.403 35.2953L120.665 29.7035L173.607 13.4983L191.869 7.90644C192.147 7.8209 192.439 7.79102 192.728 7.81848C193.018 7.84595 193.299 7.93023 193.556 8.06651C193.813 8.20278 194.04 8.38837 194.225 8.61266C194.41 8.83694 194.549 9.09552 194.634 9.3736L203.645 38.8054L203.814 39.359Z" fill="#F2F2F2"/>
<path d="M214.358 38.8049L203.498 3.33289C203.318 2.74186 203.022 2.19222 202.629 1.71539C202.236 1.23855 201.753 0.843871 201.207 0.553888C200.661 0.263904 200.064 0.084303 199.448 0.0253539C198.833 -0.0335951 198.212 0.0292632 197.622 0.21033L171.946 8.06932L119.007 24.2773L93.3315 32.1391C92.1388 32.5053 91.1401 33.3298 90.5546 34.4317C89.9692 35.5335 89.8448 36.8226 90.2088 38.016L127.325 159.245C127.621 160.208 128.218 161.052 129.028 161.651C129.838 162.25 130.819 162.574 131.826 162.575C132.293 162.575 132.757 162.505 133.202 162.368L150.803 156.981L151.356 156.809V156.23L150.803 156.399L133.039 161.839C131.986 162.16 130.849 162.05 129.877 161.534C128.905 161.017 128.177 160.136 127.854 159.084L90.7405 37.8527C90.5802 37.3314 90.5244 36.7836 90.5761 36.2407C90.6278 35.6978 90.7862 35.1705 91.042 34.6889C91.2979 34.2072 91.6462 33.7808 92.0671 33.434C92.488 33.0872 92.9731 32.8268 93.4948 32.6678L119.17 24.806L172.11 8.60083L197.785 0.739067C198.181 0.618317 198.592 0.556748 199.006 0.556363C199.893 0.558356 200.757 0.844579 201.471 1.37311C202.184 1.90164 202.709 2.6447 202.97 3.49345L213.78 38.805L213.951 39.3586H214.527L214.358 38.8049Z" fill="#3F3D56"/>
<path d="M123.961 35.3835C123.427 35.3831 122.908 35.2117 122.479 34.8945C122.05 34.5773 121.734 34.131 121.577 33.621L118.012 21.9746C117.916 21.6618 117.882 21.3331 117.914 21.0074C117.945 20.6817 118.04 20.3654 118.193 20.0764C118.347 19.7875 118.556 19.5316 118.808 19.3234C119.061 19.1152 119.352 18.9588 119.665 18.863L168.368 3.95233C169 3.75954 169.683 3.82529 170.266 4.13517C170.849 4.44504 171.286 4.97372 171.48 5.60516L175.046 17.2517C175.238 17.8835 175.173 18.566 174.863 19.1493C174.553 19.7327 174.024 20.1693 173.393 20.3634L124.689 35.2741C124.453 35.3465 124.208 35.3833 123.961 35.3835V35.3835Z" fill="#E81D25"/>
<path d="M142.638 12.444C145.696 12.444 148.174 9.96524 148.174 6.90755C148.174 3.84985 145.696 1.37109 142.638 1.37109C139.58 1.37109 137.102 3.84985 137.102 6.90755C137.102 9.96524 139.58 12.444 142.638 12.444Z" fill="#E81D25"/>
<path d="M142.639 10.4141C144.575 10.4141 146.145 8.84443 146.145 6.9082C146.145 4.97197 144.575 3.40234 142.639 3.40234C140.702 3.40234 139.133 4.97197 139.133 6.9082C139.133 8.84443 140.702 10.4141 142.639 10.4141Z" fill="white"/>
<path d="M256.821 161.159H163.255C162.632 161.158 162.033 160.91 161.592 160.469C161.151 160.028 160.903 159.43 160.902 158.806V46.6928C160.903 46.069 161.151 45.4709 161.592 45.0298C162.033 44.5887 162.631 44.3405 163.255 44.3398H256.821C257.445 44.3406 258.043 44.5887 258.484 45.0298C258.926 45.4709 259.174 46.069 259.174 46.6928V158.806C259.174 159.43 258.925 160.028 258.484 160.469C258.043 160.91 257.445 161.158 256.821 161.159V161.159Z" fill="#E6E6E6"/>
<path d="M213.778 38.8047H155.507C154.259 38.8065 153.063 39.3028 152.181 40.185C151.299 41.0672 150.803 42.2631 150.801 43.5107V156.399L151.354 156.23V43.5107C151.356 42.4098 151.794 41.3544 152.572 40.576C153.351 39.7976 154.406 39.3597 155.507 39.3583H213.95L213.778 38.8047ZM264.575 38.8047H155.507C154.259 38.8065 153.063 39.3028 152.181 40.185C151.299 41.0672 150.803 42.2631 150.801 43.5107V170.295C150.803 171.543 151.299 172.739 152.181 173.621C153.063 174.503 154.259 175 155.507 175.001H264.575C265.822 175 267.018 174.503 267.901 173.621C268.783 172.739 269.279 171.543 269.281 170.295V43.5107C269.279 42.2631 268.783 41.0672 267.901 40.185C267.018 39.3028 265.822 38.8065 264.575 38.8047V38.8047ZM268.727 170.295C268.726 171.396 268.288 172.452 267.51 173.23C266.731 174.009 265.676 174.446 264.575 174.448H155.507C154.406 174.446 153.351 174.009 152.572 173.23C151.794 172.452 151.356 171.396 151.354 170.295V43.5107C151.356 42.4098 151.794 41.3544 152.572 40.576C153.351 39.7976 154.406 39.3597 155.507 39.3583H264.575C265.676 39.3597 266.731 39.7976 267.51 40.576C268.288 41.3544 268.726 42.4098 268.727 43.5107V170.295Z" fill="#3F3D56"/>
<path d="M235.509 50.9833H184.573C183.913 50.9826 183.28 50.7199 182.813 50.2528C182.345 49.7857 182.083 49.1525 182.082 48.4919V36.3117C182.083 35.6512 182.346 35.0179 182.813 34.5508C183.28 34.0838 183.913 33.8211 184.573 33.8203H235.509C236.169 33.8211 236.803 34.0838 237.27 34.5508C237.737 35.0179 237.999 35.6512 238 36.3117V48.4919C237.999 49.1525 237.737 49.7857 237.27 50.2528C236.803 50.7199 236.169 50.9826 235.509 50.9833V50.9833Z" fill="#E81D25"/>
<path d="M210.04 34.651C213.098 34.651 215.577 32.1723 215.577 29.1146C215.577 26.0569 213.098 23.5781 210.04 23.5781C206.983 23.5781 204.504 26.0569 204.504 29.1146C204.504 32.1723 206.983 34.651 210.04 34.651Z" fill="#E81D25"/>
<path d="M210.04 32.4866C211.903 32.4866 213.412 30.9768 213.412 29.1144C213.412 27.252 211.903 25.7422 210.04 25.7422C208.178 25.7422 206.668 27.252 206.668 29.1144C206.668 30.9768 208.178 32.4866 210.04 32.4866Z" fill="white"/>
</g>
<defs>
<clipPath id="clip0_5130:14784">
<rect width="179.28" height="175" fill="white" transform="translate(90)"/>
</clipPath>
</defs>
</svg>
