<svg width="360" height="176" viewBox="0 0 360 176" fill="none" xmlns="http://www.w3.org/2000/svg">
<g clip-path="url(#clip0_5130:14558)">
<path d="M263.511 104.773C263.684 104.722 263.861 104.684 264.039 104.66L271.176 90.1596L268.997 86.8933L273.497 82.9609L279.153 89.8827L267.633 106.649C267.916 107.283 268 107.988 267.873 108.671C267.746 109.354 267.414 109.982 266.921 110.471C266.428 110.961 265.798 111.289 265.114 111.411C264.431 111.534 263.726 111.446 263.094 111.158C262.461 110.87 261.932 110.397 261.575 109.801C261.219 109.205 261.052 108.514 261.097 107.821C261.142 107.128 261.398 106.465 261.829 105.921C262.26 105.377 262.847 104.976 263.511 104.773V104.773Z" fill="#A0616A"/>
<path d="M275.697 84.9632C275.599 85.0656 275.488 85.1536 275.365 85.2242L268.064 89.457C267.888 89.5588 267.694 89.623 267.492 89.6457C267.29 89.6684 267.086 89.6489 266.893 89.5887C266.699 89.5284 266.52 89.4286 266.367 89.2955C266.213 89.1625 266.09 88.9991 266.003 88.8158L262.451 81.3131C262.3 80.9973 262.268 80.6378 262.36 80.3001C262.452 79.9623 262.662 79.6689 262.952 79.4734L267.479 76.3944C267.761 76.2023 268.102 76.1149 268.442 76.1472C268.783 76.1796 269.101 76.3297 269.342 76.5716L275.669 82.9203C275.938 83.1905 276.091 83.5548 276.096 83.9361C276.102 84.3174 275.958 84.6858 275.697 84.9632H275.697Z" fill="#CCCCCC"/>
<path d="M285.947 168.057L282.092 169.106L276.211 154.736L281.901 153.188L285.947 168.057Z" fill="#A0616A"/>
<path d="M279.041 168.754L286.475 166.731L287.749 171.412L275.633 174.709C275.466 174.094 275.421 173.452 275.502 172.82C275.583 172.188 275.787 171.578 276.104 171.025C276.42 170.472 276.842 169.987 277.346 169.597C277.85 169.208 278.426 168.921 279.041 168.754V168.754Z" fill="#2F2E41"/>
<path d="M252.994 170.997L248.999 170.996L247.098 155.586L252.994 155.586L252.994 170.997Z" fill="#A0616A"/>
<path d="M246.14 169.855H253.846V174.707H241.289C241.289 174.07 241.415 173.439 241.658 172.85C241.902 172.262 242.26 171.727 242.71 171.276C243.16 170.826 243.695 170.469 244.284 170.225C244.873 169.981 245.503 169.855 246.14 169.855Z" fill="#2F2E41"/>
<path d="M257.199 71.2777C261.62 71.2777 265.203 67.6941 265.203 63.2736C265.203 58.8531 261.62 55.2695 257.199 55.2695C252.779 55.2695 249.195 58.8531 249.195 63.2736C249.195 67.6941 252.779 71.2777 257.199 71.2777Z" fill="#A0616A"/>
<path d="M252.745 160.01H247.285C246.912 160.009 246.553 159.867 246.281 159.611C246.009 159.356 245.844 159.006 245.82 158.634C244.193 132.771 245.145 114.22 248.815 100.251C248.831 100.19 248.851 100.13 248.874 100.071L249.167 99.3399C249.275 99.0672 249.463 98.8334 249.705 98.6689C249.948 98.5045 250.235 98.417 250.528 98.418H261.756C261.967 98.4178 262.176 98.4635 262.369 98.5519C262.561 98.6403 262.732 98.7693 262.869 98.93L264.394 100.709C264.424 100.744 264.452 100.779 264.479 100.817C271.355 110.406 277.518 129.154 284.655 154.352C284.76 154.719 284.718 155.111 284.538 155.447C284.358 155.783 284.054 156.035 283.691 156.15L277.823 158.028C277.486 158.134 277.123 158.115 276.798 157.976C276.474 157.837 276.21 157.585 276.055 157.268L260.829 125.687C260.723 125.467 260.548 125.286 260.331 125.172C260.114 125.059 259.866 125.018 259.624 125.056C259.382 125.094 259.158 125.21 258.987 125.385C258.816 125.56 258.705 125.785 258.672 126.028L254.198 158.742C254.149 159.093 253.975 159.414 253.708 159.647C253.441 159.88 253.099 160.009 252.745 160.01V160.01Z" fill="#2F2E41"/>
<path d="M263.779 100.84C263.764 100.84 263.748 100.839 263.733 100.839L250.095 100.408C249.744 100.399 249.409 100.263 249.15 100.026C248.891 99.7899 248.726 99.4681 248.684 99.1198C246.956 85.1259 251.697 81.3769 253.816 80.4149C253.993 80.335 254.146 80.2107 254.261 80.0541C254.376 79.8974 254.448 79.7138 254.471 79.5209L254.655 78.0541C254.686 77.7951 254.786 77.5492 254.944 77.3419C258.266 73.0385 262.802 71.6605 265.211 71.2223C265.406 71.1872 265.606 71.1922 265.8 71.2369C265.993 71.2816 266.175 71.3652 266.335 71.4825C266.495 71.5999 266.63 71.7485 266.731 71.9194C266.832 72.0904 266.897 72.28 266.922 72.4768L267.197 74.583C267.225 74.7839 267.305 74.9739 267.429 75.1342C274.357 84.1912 266.639 97.5639 265.021 100.153C264.889 100.363 264.706 100.536 264.489 100.656C264.271 100.776 264.027 100.839 263.779 100.84Z" fill="#CCCCCC"/>
<path d="M273.351 64.1777C271.565 61.6635 269.424 59.4219 266.995 57.523C264.975 55.9453 262.726 54.5973 260.246 53.9525C257.765 53.3078 255.025 53.4175 252.762 54.6203C250.499 55.8232 248.159 58.2131 248.145 60.7761C248.14 61.5995 248.35 62.7135 249.16 62.571L249.395 62.6021C251.351 62.207 253.307 61.8119 255.263 61.4169C256.096 64.3081 256.929 67.1993 257.762 70.0905C257.938 70.6999 258.174 71.3813 258.752 71.6411C259.297 71.8859 259.927 71.6553 260.478 71.4252C260.569 71.3873 261.348 69.6388 261.348 69.6388C261.367 69.5842 261.401 69.5357 261.445 69.4985C261.49 69.4612 261.543 69.4366 261.601 69.427C261.658 69.4174 261.717 69.4233 261.771 69.444C261.825 69.4647 261.873 69.4995 261.909 69.5448L262.372 70.1231C262.46 70.2336 262.582 70.3124 262.719 70.3474C262.856 70.3825 263.001 70.3719 263.132 70.3174C266.322 68.9858 269.511 67.6542 272.701 66.3225C273.142 66.1385 273.635 65.8982 273.763 65.4378C273.885 64.9968 273.616 64.5509 273.351 64.1777Z" fill="#2F2E41"/>
<path d="M310.019 174.999H211.927C211.841 174.999 211.758 174.965 211.697 174.904C211.636 174.843 211.602 174.76 211.602 174.674C211.602 174.587 211.636 174.504 211.697 174.443C211.758 174.382 211.841 174.348 211.927 174.348H310.019C310.105 174.348 310.188 174.382 310.249 174.443C310.31 174.504 310.345 174.587 310.345 174.674C310.345 174.76 310.31 174.843 310.249 174.904C310.188 174.965 310.105 174.999 310.019 174.999Z" fill="#3F3D56"/>
<path d="M256.84 124.215C256.618 124.214 256.403 124.142 256.224 124.011L254.741 122.933C254.618 122.843 254.469 122.795 254.317 122.795C254.164 122.795 254.016 122.843 253.893 122.933L252.41 124.011C252.231 124.141 252.015 124.211 251.794 124.211C251.573 124.211 251.357 124.141 251.179 124.011C251 123.881 250.866 123.697 250.798 123.487C250.73 123.277 250.73 123.05 250.798 122.84L251.365 121.096C251.412 120.951 251.412 120.795 251.365 120.65C251.318 120.505 251.226 120.379 251.103 120.29L249.619 119.212C249.44 119.082 249.307 118.899 249.239 118.688C249.17 118.478 249.17 118.251 249.239 118.041C249.307 117.831 249.44 117.647 249.619 117.517C249.798 117.387 250.014 117.317 250.235 117.317H252.068C252.221 117.318 252.369 117.27 252.492 117.18C252.616 117.09 252.707 116.964 252.754 116.819L253.321 115.075C253.389 114.865 253.522 114.682 253.701 114.552C253.88 114.422 254.096 114.352 254.317 114.352C254.538 114.352 254.753 114.422 254.932 114.552C255.111 114.682 255.244 114.865 255.313 115.075L255.879 116.819C255.926 116.964 256.018 117.09 256.141 117.18C256.264 117.27 256.413 117.318 256.565 117.317H258.399C258.62 117.317 258.836 117.387 259.014 117.517C259.193 117.647 259.327 117.831 259.395 118.041C259.463 118.251 259.463 118.478 259.395 118.688C259.327 118.899 259.193 119.082 259.015 119.212L257.531 120.29C257.408 120.379 257.316 120.505 257.269 120.65C257.222 120.795 257.222 120.951 257.269 121.096L257.836 122.84C257.907 123.05 257.908 123.277 257.839 123.488C257.771 123.699 257.636 123.882 257.455 124.011C257.277 124.142 257.061 124.214 256.84 124.215V124.215Z" fill="#E81D25"/>
<path d="M262.509 120.729C262.928 120.435 263.277 120.053 263.533 119.609C263.788 119.166 263.943 118.672 263.987 118.162C264.03 117.652 263.962 117.138 263.786 116.658C263.609 116.177 263.33 115.741 262.967 115.38L265.5 84.7891L257.958 85.8266L257.815 115.549C257.249 116.199 256.941 117.033 256.949 117.895C256.958 118.757 257.282 119.585 257.861 120.224C258.44 120.862 259.232 121.266 260.089 121.36C260.946 121.453 261.807 121.228 262.509 120.729V120.729Z" fill="#A0616A"/>
<path d="M265.993 89.1938C265.851 89.1938 265.711 89.1734 265.575 89.1333L257.478 86.7519C257.284 86.6947 257.103 86.5977 256.948 86.4671C256.793 86.3365 256.666 86.1751 256.577 85.9931C256.487 85.8111 256.436 85.6125 256.427 85.4099C256.418 85.2072 256.451 85.0049 256.525 84.8157L259.521 77.0747C259.646 76.7477 259.884 76.4766 260.193 76.3108C260.501 76.145 260.859 76.0955 261.2 76.1715L266.55 77.3343C266.884 77.4071 267.182 77.5941 267.392 77.8631C267.603 78.1321 267.713 78.4662 267.704 78.8078L267.455 87.7671C267.444 88.1483 267.286 88.5104 267.013 88.7767C266.74 89.043 266.374 89.1926 265.993 89.1938H265.993Z" fill="#CCCCCC"/>
<path d="M189.782 127.422H51.2812C50.6764 127.422 50.0966 127.181 49.6689 126.753C49.2412 126.326 49.0007 125.746 49 125.141V83.7538C49.0007 83.149 49.2412 82.5692 49.6689 82.1416C50.0966 81.7139 50.6764 81.4733 51.2812 81.4727H189.782C190.387 81.4733 190.967 81.7139 191.394 82.1416C191.822 82.5692 192.063 83.149 192.063 83.7538V125.141C192.063 125.746 191.822 126.326 191.394 126.753C190.967 127.181 190.387 127.422 189.782 127.422V127.422ZM51.2812 82.1244C50.8492 82.1249 50.435 82.2968 50.1296 82.6022C49.8241 82.9077 49.6523 83.3219 49.6518 83.7538V125.141C49.6523 125.573 49.8241 125.987 50.1296 126.293C50.435 126.598 50.8492 126.77 51.2812 126.771H189.782C190.214 126.77 190.628 126.598 190.934 126.293C191.239 125.987 191.411 125.573 191.412 125.141V83.7538C191.411 83.3218 191.239 82.9077 190.934 82.6022C190.628 82.2967 190.214 82.1249 189.782 82.1244H51.2812Z" fill="#3F3D56"/>
<path d="M111.89 144.848C111.619 144.847 111.354 144.76 111.136 144.599L109.319 143.278C109.168 143.168 108.986 143.109 108.799 143.109C108.613 143.109 108.431 143.168 108.28 143.278L106.463 144.599C106.244 144.758 105.98 144.844 105.709 144.844C105.438 144.844 105.174 144.758 104.955 144.599C104.736 144.439 104.572 144.215 104.489 143.957C104.405 143.7 104.405 143.422 104.489 143.164L105.183 141.028C105.241 140.851 105.241 140.659 105.183 140.482C105.126 140.304 105.013 140.149 104.862 140.04L103.044 138.72C102.825 138.56 102.662 138.336 102.578 138.078C102.495 137.821 102.495 137.543 102.578 137.285C102.662 137.028 102.825 136.803 103.044 136.644C103.264 136.485 103.528 136.399 103.798 136.399H106.045C106.231 136.399 106.413 136.34 106.564 136.231C106.715 136.121 106.828 135.966 106.885 135.788L107.579 133.652C107.663 133.394 107.826 133.17 108.045 133.011C108.264 132.851 108.528 132.766 108.799 132.766C109.07 132.766 109.334 132.851 109.553 133.011C109.773 133.17 109.936 133.394 110.019 133.652L110.714 135.788C110.771 135.966 110.883 136.121 111.034 136.231C111.185 136.34 111.367 136.399 111.554 136.399H113.8C114.071 136.399 114.335 136.485 114.554 136.644C114.773 136.803 114.937 137.028 115.02 137.285C115.104 137.543 115.104 137.821 115.02 138.078C114.937 138.336 114.773 138.56 114.554 138.72L112.737 140.04C112.586 140.149 112.473 140.304 112.415 140.482C112.358 140.659 112.358 140.851 112.416 141.028L113.11 143.164C113.197 143.422 113.198 143.7 113.115 143.959C113.031 144.217 112.866 144.441 112.644 144.599C112.426 144.76 112.162 144.847 111.89 144.848V144.848Z" fill="#E81D25"/>
<path d="M130.3 144.848C130.029 144.847 129.765 144.76 129.546 144.599L127.729 143.278C127.578 143.168 127.396 143.109 127.209 143.109C127.023 143.109 126.841 143.168 126.69 143.278L124.873 144.599C124.654 144.758 124.39 144.843 124.119 144.844C123.848 144.844 123.584 144.758 123.365 144.599C123.146 144.439 122.982 144.215 122.899 143.957C122.815 143.7 122.815 143.422 122.899 143.164L123.593 141.028C123.651 140.851 123.651 140.659 123.593 140.482C123.536 140.304 123.423 140.149 123.272 140.04L121.455 138.72C121.235 138.56 121.072 138.336 120.989 138.078C120.905 137.821 120.905 137.543 120.989 137.285C121.072 137.028 121.235 136.803 121.455 136.644C121.674 136.485 121.938 136.399 122.209 136.399H124.455C124.642 136.399 124.823 136.34 124.975 136.231C125.126 136.121 125.238 135.966 125.295 135.788L125.989 133.652C126.073 133.394 126.236 133.17 126.455 133.011C126.675 132.851 126.939 132.766 127.209 132.766C127.48 132.766 127.744 132.851 127.964 133.011C128.183 133.17 128.346 133.394 128.43 133.652L129.124 135.788C129.181 135.966 129.293 136.121 129.444 136.231C129.595 136.34 129.777 136.399 129.964 136.399H132.21C132.481 136.399 132.745 136.485 132.964 136.644C133.183 136.803 133.347 137.028 133.43 137.285C133.514 137.543 133.514 137.821 133.43 138.078C133.347 138.336 133.184 138.56 132.964 138.72L131.147 140.04C130.996 140.149 130.883 140.304 130.826 140.482C130.768 140.659 130.768 140.851 130.826 141.028L131.52 143.164C131.607 143.422 131.609 143.7 131.525 143.959C131.441 144.217 131.276 144.441 131.054 144.599C130.836 144.76 130.572 144.847 130.3 144.848V144.848Z" fill="#E81D25"/>
<path d="M148.718 144.848C148.447 144.847 148.183 144.76 147.964 144.599L146.147 143.278C145.996 143.168 145.814 143.109 145.627 143.109C145.441 143.109 145.259 143.168 145.108 143.278L143.291 144.599C143.072 144.758 142.808 144.844 142.537 144.844C142.266 144.844 142.002 144.758 141.783 144.599C141.564 144.439 141.4 144.215 141.317 143.957C141.233 143.7 141.233 143.422 141.317 143.164L142.011 141.028C142.069 140.851 142.069 140.659 142.011 140.482C141.954 140.304 141.841 140.149 141.69 140.04L139.872 138.72C139.653 138.56 139.49 138.336 139.407 138.078C139.323 137.821 139.323 137.543 139.407 137.285C139.49 137.028 139.653 136.803 139.873 136.644C140.092 136.485 140.356 136.399 140.627 136.399H142.873C143.059 136.399 143.241 136.34 143.392 136.231C143.544 136.121 143.656 135.966 143.713 135.788L144.407 133.652C144.491 133.394 144.654 133.17 144.873 133.011C145.093 132.851 145.356 132.766 145.627 132.766C145.898 132.766 146.162 132.851 146.382 133.011C146.601 133.17 146.764 133.394 146.848 133.652L147.542 135.788C147.599 135.966 147.711 136.121 147.862 136.231C148.013 136.34 148.195 136.399 148.382 136.399H150.628C150.899 136.399 151.163 136.485 151.382 136.644C151.601 136.803 151.765 137.028 151.848 137.285C151.932 137.543 151.932 137.821 151.848 138.078C151.765 138.336 151.602 138.56 151.382 138.72L149.565 140.04C149.414 140.149 149.301 140.304 149.244 140.482C149.186 140.659 149.186 140.851 149.244 141.028L149.938 143.164C150.025 143.422 150.026 143.7 149.943 143.959C149.859 144.217 149.694 144.441 149.472 144.599C149.254 144.76 148.99 144.847 148.718 144.848V144.848Z" fill="#E81D25"/>
<path d="M167.132 144.848C166.861 144.847 166.597 144.76 166.378 144.598L164.561 143.278C164.41 143.168 164.228 143.109 164.042 143.109C163.855 143.109 163.673 143.168 163.522 143.278L161.705 144.598C161.486 144.758 161.222 144.843 160.951 144.843C160.68 144.843 160.416 144.758 160.197 144.599C159.978 144.439 159.815 144.215 159.731 143.957C159.647 143.7 159.647 143.422 159.731 143.164L160.425 141.028C160.483 140.851 160.483 140.659 160.425 140.482C160.368 140.304 160.255 140.15 160.104 140.04L158.287 138.72C158.067 138.56 157.904 138.336 157.821 138.078C157.737 137.821 157.737 137.543 157.821 137.285C157.904 137.028 158.067 136.803 158.287 136.644C158.506 136.485 158.77 136.399 159.041 136.399H161.287C161.474 136.399 161.656 136.34 161.807 136.231C161.958 136.121 162.07 135.966 162.127 135.788L162.821 133.652C162.905 133.394 163.068 133.17 163.287 133.011C163.507 132.851 163.771 132.766 164.041 132.766C164.312 132.766 164.576 132.851 164.796 133.011C165.015 133.17 165.178 133.394 165.262 133.652L165.956 135.788C166.013 135.966 166.125 136.121 166.276 136.231C166.427 136.34 166.609 136.399 166.796 136.399H169.042C169.313 136.399 169.577 136.485 169.796 136.644C170.016 136.803 170.179 137.028 170.262 137.285C170.346 137.543 170.346 137.821 170.262 138.078C170.179 138.336 170.016 138.56 169.796 138.72L167.979 140.04C167.828 140.149 167.715 140.304 167.658 140.482C167.6 140.659 167.6 140.851 167.658 141.028L168.352 143.164C168.439 143.422 168.441 143.7 168.357 143.959C168.273 144.217 168.108 144.441 167.886 144.598C167.668 144.76 167.404 144.847 167.132 144.848V144.848Z" fill="#E81D25"/>
<path d="M179.366 144.976C179.068 144.975 178.778 144.879 178.538 144.702C178.295 144.529 178.113 144.283 178.021 143.999C177.929 143.715 177.931 143.409 178.026 143.126L178.72 140.99C178.77 140.838 178.77 140.674 178.721 140.522C178.671 140.37 178.575 140.237 178.445 140.143L176.628 138.823C176.387 138.648 176.208 138.401 176.116 138.118C176.024 137.835 176.024 137.531 176.116 137.248C176.208 136.965 176.387 136.718 176.628 136.543C176.869 136.368 177.159 136.274 177.456 136.274H179.702C179.862 136.274 180.018 136.224 180.148 136.13C180.277 136.036 180.373 135.903 180.423 135.751L181.117 133.614C181.209 133.331 181.388 133.085 181.629 132.91C181.869 132.735 182.159 132.641 182.457 132.641C182.755 132.641 183.044 132.735 183.285 132.91C183.526 133.085 183.705 133.331 183.797 133.614L184.491 135.751C184.54 135.903 184.637 136.036 184.766 136.13C184.896 136.224 185.051 136.274 185.212 136.274H187.458C187.755 136.274 188.045 136.368 188.286 136.543C188.527 136.718 188.706 136.965 188.798 137.248C188.89 137.531 188.89 137.835 188.798 138.118C188.706 138.401 188.527 138.648 188.286 138.823L186.469 140.143C186.339 140.237 186.243 140.37 186.193 140.522C186.144 140.674 186.144 140.838 186.194 140.99L186.888 143.126C186.98 143.409 186.98 143.714 186.888 143.997C186.796 144.28 186.617 144.527 186.376 144.702C186.135 144.877 185.845 144.971 185.548 144.971C185.25 144.971 184.96 144.877 184.719 144.702L182.902 143.382C182.773 143.287 182.617 143.236 182.457 143.236C182.297 143.236 182.141 143.287 182.012 143.382L180.194 144.702C179.954 144.879 179.664 144.975 179.366 144.976V144.976ZM182.457 142.584C182.755 142.584 183.045 142.679 183.285 142.854L185.102 144.175C185.232 144.269 185.388 144.319 185.548 144.319C185.707 144.319 185.863 144.269 185.993 144.175C186.122 144.081 186.218 143.948 186.268 143.796C186.317 143.644 186.317 143.48 186.268 143.328L185.574 141.192C185.481 140.909 185.481 140.604 185.573 140.32C185.665 140.037 185.845 139.791 186.086 139.616L187.903 138.296C188.032 138.202 188.129 138.069 188.178 137.917C188.227 137.765 188.227 137.601 188.178 137.449C188.129 137.297 188.032 137.164 187.903 137.07C187.774 136.976 187.618 136.926 187.458 136.926H185.211C184.914 136.926 184.624 136.832 184.383 136.657C184.142 136.482 183.963 136.235 183.871 135.952L183.177 133.816C183.128 133.664 183.031 133.531 182.902 133.437C182.773 133.343 182.617 133.292 182.457 133.292C182.297 133.292 182.141 133.343 182.012 133.437C181.882 133.531 181.786 133.664 181.737 133.816L181.042 135.952C180.951 136.235 180.772 136.482 180.531 136.657C180.29 136.832 180 136.926 179.702 136.926H177.456C177.296 136.926 177.14 136.976 177.011 137.07C176.881 137.164 176.785 137.297 176.736 137.449C176.686 137.601 176.686 137.765 176.736 137.917C176.785 138.069 176.881 138.202 177.011 138.296L178.828 139.616C179.069 139.791 179.249 140.037 179.341 140.32C179.433 140.604 179.433 140.909 179.34 141.192L178.646 143.328C178.596 143.48 178.596 143.644 178.646 143.796C178.695 143.948 178.792 144.081 178.921 144.175C179.05 144.269 179.206 144.319 179.366 144.319C179.526 144.319 179.682 144.269 179.811 144.175L181.629 142.854C181.869 142.679 182.159 142.584 182.457 142.584V142.584Z" fill="#3F3D56"/>
<path d="M66.9229 91.2461C66.3611 91.2461 65.8224 91.4693 65.4251 91.8665C65.0279 92.2638 64.8047 92.8025 64.8047 93.3643C64.8047 93.9261 65.0279 94.4649 65.4251 94.8622C65.8224 95.2594 66.3611 95.4826 66.9229 95.4826H174.139C174.701 95.4826 175.24 95.2594 175.637 94.8622C176.034 94.4649 176.257 93.9261 176.257 93.3643C176.257 92.8025 176.034 92.2638 175.637 91.8665C175.24 91.4693 174.701 91.2461 174.139 91.2461H66.9229Z" fill="#CCCCCC"/>
<path d="M66.9229 102.328C66.3611 102.328 65.8224 102.551 65.4251 102.949C65.0279 103.346 64.8047 103.885 64.8047 104.446C64.8047 105.008 65.0279 105.547 65.4251 105.944C65.8224 106.341 66.3611 106.565 66.9229 106.565H174.139C174.701 106.565 175.24 106.341 175.637 105.944C176.034 105.547 176.257 105.008 176.257 104.446C176.257 103.885 176.034 103.346 175.637 102.949C175.24 102.551 174.701 102.328 174.139 102.328H66.9229Z" fill="#CCCCCC"/>
<path d="M66.9229 113.406C66.3611 113.406 65.8224 113.629 65.4251 114.027C65.0279 114.424 64.8047 114.963 64.8047 115.524C64.8047 116.086 65.0279 116.625 65.4251 117.022C65.8224 117.42 66.3611 117.643 66.9229 117.643H174.139C174.701 117.643 175.24 117.42 175.637 117.022C176.034 116.625 176.257 116.086 176.257 115.524C176.257 114.963 176.034 114.424 175.637 114.027C175.24 113.629 174.701 113.406 174.139 113.406H66.9229Z" fill="#CCCCCC"/>
<path d="M66.9229 91.2461C66.3611 91.2461 65.8224 91.4693 65.4251 91.8665C65.0279 92.2638 64.8047 92.8025 64.8047 93.3643C64.8047 93.9261 65.0279 94.4649 65.4251 94.8622C65.8224 95.2594 66.3611 95.4826 66.9229 95.4826H174.139C174.701 95.4826 175.24 95.2594 175.637 94.8622C176.034 94.4649 176.257 93.9261 176.257 93.3643C176.257 92.8025 176.034 92.2638 175.637 91.8665C175.24 91.4693 174.701 91.2461 174.139 91.2461H66.9229Z" fill="#CCCCCC"/>
<path d="M66.9229 102.328C66.3611 102.328 65.8224 102.551 65.4251 102.949C65.0279 103.346 64.8047 103.885 64.8047 104.446C64.8047 105.008 65.0279 105.547 65.4251 105.944C65.8224 106.341 66.3611 106.565 66.9229 106.565H174.139C174.701 106.565 175.24 106.341 175.637 105.944C176.034 105.547 176.257 105.008 176.257 104.446C176.257 103.885 176.034 103.346 175.637 102.949C175.24 102.551 174.701 102.328 174.139 102.328H66.9229Z" fill="#CCCCCC"/>
<path d="M66.9229 113.406C66.3611 113.406 65.8224 113.629 65.4251 114.027C65.0279 114.424 64.8047 114.963 64.8047 115.524C64.8047 116.086 65.0279 116.625 65.4251 117.022C65.8224 117.42 66.3611 117.643 66.9229 117.643H174.139C174.701 117.643 175.24 117.42 175.637 117.022C176.034 116.625 176.257 116.086 176.257 115.524C176.257 114.963 176.034 114.424 175.637 114.027C175.24 113.629 174.701 113.406 174.139 113.406H66.9229Z" fill="#CCCCCC"/>
<path d="M189.782 45.9497H51.2812C50.6764 45.949 50.0966 45.7085 49.6689 45.2808C49.2412 44.8532 49.0007 44.2733 49 43.6685V2.28119C49.0007 1.67639 49.2412 1.09655 49.6689 0.668895C50.0966 0.241235 50.6764 0.000678825 51.2812 0H189.782C190.387 0.000677965 190.967 0.241235 191.394 0.668895C191.822 1.09655 192.063 1.67639 192.063 2.28119V43.6685C192.063 44.2733 191.822 44.8532 191.394 45.2808C190.967 45.7085 190.387 45.949 189.782 45.9497ZM51.2812 0.651769C50.8492 0.652269 50.435 0.824099 50.1296 1.12957C49.8241 1.43503 49.6523 1.8492 49.6518 2.28119V43.6685C49.6523 44.1005 49.8241 44.5147 50.1296 44.8202C50.435 45.1256 50.8492 45.2975 51.2812 45.298H189.782C190.214 45.2975 190.628 45.1256 190.934 44.8202C191.239 44.5147 191.411 44.1005 191.412 43.6685V2.28119C191.411 1.84919 191.239 1.43503 190.934 1.12956C190.628 0.824093 190.214 0.652262 189.782 0.651769H51.2812Z" fill="#3F3D56"/>
<path d="M111.89 63.3756C111.619 63.3745 111.354 63.287 111.136 63.1259L109.319 61.8056C109.168 61.6954 108.986 61.6361 108.799 61.6361C108.613 61.6361 108.431 61.6954 108.28 61.8056L106.463 63.1259C106.244 63.2851 105.98 63.3709 105.709 63.3709C105.438 63.3709 105.174 63.2851 104.955 63.1259C104.736 62.9667 104.572 62.7422 104.489 62.4845C104.405 62.2269 104.405 61.9494 104.489 61.6917L105.183 59.5554C105.241 59.378 105.241 59.1867 105.183 59.0091C105.126 58.8315 105.013 58.6768 104.862 58.5673L103.044 57.247C102.825 57.0878 102.662 56.8633 102.578 56.6056C102.495 56.348 102.495 56.0704 102.578 55.8128C102.662 55.5551 102.825 55.3306 103.044 55.1713C103.264 55.0121 103.528 54.9263 103.798 54.9263H106.045C106.231 54.9267 106.413 54.8677 106.564 54.758C106.715 54.6483 106.828 54.4935 106.885 54.3158L107.579 52.1795C107.663 51.9218 107.826 51.6973 108.045 51.538C108.264 51.3788 108.528 51.293 108.799 51.293C109.07 51.293 109.334 51.3788 109.553 51.538C109.773 51.6973 109.936 51.9218 110.019 52.1795L110.714 54.3158C110.771 54.4935 110.883 54.6483 111.034 54.758C111.185 54.8677 111.367 54.9267 111.554 54.9263H113.8C114.071 54.9264 114.335 55.0121 114.554 55.1714C114.773 55.3306 114.937 55.5551 115.02 55.8128C115.104 56.0704 115.104 56.348 115.02 56.6056C114.937 56.8633 114.773 57.0878 114.554 57.247L112.737 58.5673C112.586 58.6768 112.473 58.8315 112.415 59.0091C112.358 59.1867 112.358 59.378 112.416 59.5554L113.11 61.6917C113.197 61.9491 113.198 62.2276 113.115 62.4859C113.031 62.7443 112.866 62.9687 112.644 63.1259C112.426 63.287 112.162 63.3745 111.89 63.3756Z" fill="#E81D25"/>
<path d="M130.3 63.3756C130.029 63.3745 129.765 63.287 129.546 63.1259L127.729 61.8056C127.578 61.6954 127.396 61.6361 127.209 61.6361C127.023 61.6361 126.841 61.6954 126.69 61.8056L124.873 63.1259C124.654 63.2851 124.39 63.3709 124.119 63.3709C123.848 63.3709 123.584 63.2851 123.365 63.1259C123.146 62.9667 122.982 62.7422 122.899 62.4845C122.815 62.2269 122.815 61.9494 122.899 61.6917L123.593 59.5554C123.651 59.378 123.651 59.1867 123.593 59.0091C123.536 58.8315 123.423 58.6768 123.272 58.5673L121.455 57.247C121.235 57.0878 121.072 56.8632 120.989 56.6056C120.905 56.3479 120.905 56.0704 120.989 55.8128C121.072 55.5551 121.235 55.3306 121.455 55.1713C121.674 55.0121 121.938 54.9263 122.209 54.9263H124.455C124.642 54.9267 124.823 54.8677 124.975 54.758C125.126 54.6483 125.238 54.4935 125.295 54.3158L125.989 52.1795C126.073 51.9218 126.236 51.6973 126.455 51.538C126.675 51.3787 126.939 51.293 127.209 51.293C127.48 51.293 127.744 51.3787 127.964 51.538C128.183 51.6973 128.346 51.9218 128.43 52.1795L129.124 54.3158C129.181 54.4935 129.293 54.6483 129.444 54.758C129.595 54.8677 129.777 54.9267 129.964 54.9263H132.21C132.481 54.9263 132.745 55.0121 132.964 55.1713C133.183 55.3306 133.347 55.5551 133.43 55.8128C133.514 56.0704 133.514 56.3479 133.43 56.6056C133.347 56.8632 133.184 57.0878 132.964 57.247L131.147 58.5673C130.996 58.6768 130.883 58.8315 130.826 59.0091C130.768 59.1866 130.768 59.378 130.826 59.5554L131.52 61.6917C131.607 61.9491 131.609 62.2276 131.525 62.4859C131.441 62.7443 131.276 62.9687 131.054 63.1259C130.836 63.287 130.572 63.3745 130.3 63.3756V63.3756Z" fill="#E81D25"/>
<path d="M148.718 63.3756C148.447 63.3745 148.183 63.287 147.964 63.1259L146.147 61.8056C145.996 61.6957 145.814 61.6365 145.627 61.6365C145.441 61.6365 145.259 61.6957 145.108 61.8056L143.291 63.1259C143.072 63.2851 142.808 63.3709 142.537 63.3709C142.266 63.3709 142.002 63.2851 141.783 63.1259C141.564 62.9667 141.4 62.7422 141.317 62.4845C141.233 62.2269 141.233 61.9494 141.317 61.6917L142.011 59.5554C142.069 59.378 142.069 59.1867 142.011 59.0091C141.954 58.8315 141.841 58.6768 141.69 58.5673L139.872 57.247C139.653 57.0878 139.49 56.8632 139.407 56.6056C139.323 56.3479 139.323 56.0704 139.407 55.8128C139.49 55.5551 139.653 55.3306 139.873 55.1713C140.092 55.0121 140.356 54.9263 140.627 54.9263H142.873C143.059 54.9267 143.241 54.8677 143.392 54.758C143.544 54.6483 143.656 54.4935 143.713 54.3158L144.407 52.1795C144.491 51.9218 144.654 51.6973 144.873 51.538C145.093 51.3787 145.356 51.293 145.627 51.293C145.898 51.293 146.162 51.3787 146.382 51.538C146.601 51.6973 146.764 51.9218 146.848 52.1795L147.542 54.3158C147.599 54.4935 147.711 54.6483 147.862 54.758C148.013 54.8677 148.195 54.9267 148.382 54.9263H150.628C150.899 54.9263 151.163 55.0121 151.382 55.1713C151.601 55.3306 151.765 55.5551 151.848 55.8128C151.932 56.0704 151.932 56.3479 151.848 56.6056C151.765 56.8632 151.602 57.0878 151.382 57.247L149.565 58.5673C149.414 58.6768 149.301 58.8315 149.244 59.0091C149.186 59.1867 149.186 59.378 149.244 59.5554L149.938 61.6917C150.025 61.9491 150.026 62.2276 149.943 62.4859C149.859 62.7442 149.694 62.9686 149.472 63.1259C149.254 63.287 148.99 63.3745 148.718 63.3756V63.3756Z" fill="#E81D25"/>
<path d="M179.366 63.5034C179.068 63.5022 178.778 63.4062 178.538 63.2294C178.295 63.0567 178.113 62.8101 178.021 62.5263C177.929 62.2425 177.931 61.9365 178.026 61.6537L178.72 59.5175C178.77 59.3654 178.77 59.2015 178.721 59.0493C178.671 58.8972 178.575 58.7646 178.445 58.6708L176.628 57.3504C176.387 57.1755 176.208 56.9289 176.116 56.6458C176.024 56.3628 176.024 56.0579 176.116 55.7749C176.208 55.4919 176.387 55.2452 176.628 55.0703C176.869 54.8954 177.159 54.8012 177.456 54.8013H179.702C179.862 54.8016 180.018 54.751 180.148 54.657C180.277 54.5629 180.373 54.4302 180.423 54.2779L181.117 52.1416C181.209 51.8586 181.388 51.612 181.629 51.4371C181.869 51.2622 182.159 51.168 182.457 51.168C182.755 51.168 183.044 51.2622 183.285 51.4371C183.526 51.612 183.705 51.8586 183.797 52.1416L184.491 54.2779C184.54 54.4301 184.637 54.5629 184.766 54.6569C184.896 54.751 185.051 54.8015 185.212 54.8013H187.458C187.755 54.8013 188.045 54.8955 188.286 55.0704C188.527 55.2453 188.706 55.4919 188.798 55.7749C188.89 56.0579 188.89 56.3628 188.798 56.6458C188.706 56.9288 188.527 57.1755 188.286 57.3504L186.469 58.6708C186.339 58.7646 186.243 58.8971 186.193 59.0493C186.144 59.2015 186.144 59.3654 186.194 59.5175L186.888 61.6537C186.98 61.9368 186.98 62.2416 186.888 62.5246C186.796 62.8077 186.617 63.0543 186.376 63.2292C186.135 63.4041 185.845 63.4983 185.548 63.4983C185.25 63.4983 184.96 63.4041 184.719 63.2292L182.902 61.909C182.773 61.8147 182.617 61.7638 182.457 61.7638C182.297 61.7638 182.141 61.8147 182.012 61.909L180.194 63.2292C179.954 63.4062 179.664 63.5022 179.366 63.5034V63.5034ZM182.457 61.1118C182.755 61.1118 183.045 61.2063 183.285 61.3816L185.102 62.7019C185.232 62.7959 185.388 62.8466 185.548 62.8466C185.707 62.8467 185.863 62.796 185.993 62.702C186.122 62.608 186.218 62.4755 186.268 62.3233C186.317 62.1712 186.317 62.0073 186.268 61.8552L185.574 59.719C185.481 59.436 185.481 59.1309 185.573 58.8478C185.665 58.5646 185.845 58.318 186.086 58.1435L187.903 56.8231C188.032 56.7291 188.129 56.5965 188.178 56.4444C188.227 56.2923 188.227 56.1285 188.178 55.9763C188.129 55.8242 188.032 55.6917 187.903 55.5977C187.774 55.5037 187.618 55.453 187.458 55.453H185.211C184.914 55.4536 184.624 55.3596 184.383 55.1846C184.142 55.0096 183.963 54.7627 183.871 54.4794L183.177 52.3431C183.128 52.191 183.031 52.0584 182.902 51.9644C182.773 51.8704 182.617 51.8197 182.457 51.8197C182.297 51.8197 182.141 51.8704 182.012 51.9644C181.882 52.0584 181.786 52.191 181.737 52.3431L181.042 54.4794C180.951 54.7627 180.772 55.0096 180.531 55.1846C180.29 55.3596 180 55.4536 179.702 55.453H177.456C177.296 55.453 177.14 55.5036 177.011 55.5976C176.881 55.6916 176.785 55.8242 176.736 55.9763C176.686 56.1284 176.686 56.2923 176.736 56.4444C176.785 56.5965 176.881 56.7291 177.011 56.8231L178.828 58.1435C179.069 58.3181 179.249 58.5647 179.341 58.8478C179.433 59.131 179.433 59.436 179.34 59.719L178.646 61.8552C178.596 62.0073 178.596 62.1712 178.646 62.3233C178.695 62.4754 178.792 62.6079 178.921 62.7019C179.05 62.7959 179.206 62.8466 179.366 62.8466C179.526 62.8466 179.682 62.7959 179.811 62.7019L181.629 61.3816C181.869 61.2063 182.159 61.1118 182.457 61.1118V61.1118Z" fill="#3F3D56"/>
<path d="M160.792 63.4487C160.494 63.4475 160.204 63.3515 159.964 63.1747C159.72 63.0019 159.539 62.7554 159.447 62.4716C159.355 62.1878 159.356 61.8818 159.452 61.599L160.146 59.4628C160.196 59.3107 160.196 59.1468 160.146 58.9946C160.097 58.8425 160 58.7099 159.871 58.6161L158.054 57.2957C157.813 57.1208 157.634 56.8741 157.542 56.5911C157.45 56.3081 157.45 56.0032 157.542 55.7202C157.634 55.4372 157.813 55.1905 158.054 55.0156C158.294 54.8407 158.584 54.7465 158.882 54.7466H161.128C161.288 54.7469 161.444 54.6963 161.574 54.6023C161.703 54.5082 161.799 54.3755 161.848 54.2232L162.543 52.087C162.635 51.8039 162.814 51.5573 163.054 51.3824C163.295 51.2075 163.585 51.1133 163.883 51.1133C164.18 51.1133 164.47 51.2075 164.711 51.3824C164.952 51.5573 165.131 51.8039 165.223 52.087L165.917 54.2232C165.966 54.3755 166.062 54.5082 166.192 54.6022C166.321 54.6963 166.477 54.7468 166.637 54.7466H168.884C169.181 54.7466 169.471 54.8408 169.712 55.0157C169.953 55.1906 170.132 55.4372 170.224 55.7202C170.316 56.0033 170.316 56.3081 170.224 56.5911C170.132 56.8741 169.953 57.1208 169.712 57.2957L167.895 58.6161C167.765 58.7099 167.668 58.8424 167.619 58.9946C167.57 59.1468 167.57 59.3107 167.619 59.4628L168.314 61.599C168.406 61.8821 168.406 62.1869 168.314 62.4699C168.222 62.753 168.042 62.9996 167.802 63.1745C167.561 63.3494 167.271 63.4436 166.973 63.4436C166.676 63.4436 166.386 63.3494 166.145 63.1745L164.328 61.8543C164.199 61.76 164.043 61.7092 163.883 61.7092C163.723 61.7092 163.567 61.76 163.438 61.8543L161.62 63.1745C161.38 63.3515 161.09 63.4475 160.792 63.4487V63.4487ZM163.883 61.0571C164.18 61.0571 164.47 61.1516 164.711 61.3269L166.528 62.6472C166.658 62.7412 166.813 62.7919 166.973 62.7919C167.133 62.792 167.289 62.7413 167.419 62.6473C167.548 62.5533 167.644 62.4207 167.694 62.2686C167.743 62.1165 167.743 61.9526 167.694 61.8005L167 59.6643C166.907 59.3813 166.907 59.0762 166.999 58.7931C167.091 58.5099 167.27 58.2633 167.511 58.0888L169.329 56.7684C169.458 56.6744 169.554 56.5418 169.604 56.3897C169.653 56.2376 169.653 56.0737 169.604 55.9216C169.554 55.7695 169.458 55.637 169.329 55.543C169.199 55.449 169.043 55.3983 168.884 55.3983H166.637C166.34 55.3989 166.049 55.3049 165.809 55.1299C165.568 54.9549 165.389 54.708 165.297 54.4246L164.603 52.2884C164.554 52.1363 164.457 52.0037 164.328 51.9097C164.198 51.8157 164.043 51.765 163.883 51.765C163.723 51.765 163.567 51.8157 163.437 51.9097C163.308 52.0037 163.212 52.1363 163.162 52.2884L162.468 54.4246C162.377 54.708 162.198 54.9549 161.957 55.1299C161.716 55.3049 161.426 55.3989 161.128 55.3983H158.882C158.722 55.3983 158.566 55.4489 158.437 55.5429C158.307 55.6369 158.211 55.7695 158.162 55.9216C158.112 56.0737 158.112 56.2376 158.162 56.3897C158.211 56.5418 158.307 56.6744 158.437 56.7684L160.254 58.0888C160.495 58.2633 160.675 58.51 160.767 58.7931C160.859 59.0762 160.858 59.3813 160.766 59.6643L160.072 61.8005C160.022 61.9526 160.022 62.1165 160.072 62.2686C160.121 62.4207 160.217 62.5532 160.347 62.6472C160.476 62.7412 160.632 62.7919 160.792 62.7919C160.952 62.7918 161.108 62.7412 161.237 62.6472L163.054 61.3269C163.295 61.1516 163.585 61.0571 163.883 61.0571V61.0571Z" fill="#3F3D56"/>
<path d="M66.9229 9.77734C66.3611 9.77734 65.8224 10.0005 65.4251 10.3978C65.0279 10.795 64.8047 11.3338 64.8047 11.8956C64.8047 12.4574 65.0279 12.9962 65.4251 13.3934C65.8224 13.7907 66.3611 14.0138 66.9229 14.0138H174.139C174.701 14.0138 175.24 13.7907 175.637 13.3934C176.034 12.9962 176.257 12.4574 176.257 11.8956C176.257 11.3338 176.034 10.795 175.637 10.3978C175.24 10.0005 174.701 9.77734 174.139 9.77734H66.9229Z" fill="#CCCCCC"/>
<path d="M66.9229 20.8555C66.3611 20.8555 65.8224 21.0786 65.4251 21.4759C65.0279 21.8731 64.8047 22.4119 64.8047 22.9737C64.8047 23.5355 65.0279 24.0743 65.4251 24.4715C65.8224 24.8688 66.3611 25.092 66.9229 25.092H174.139C174.701 25.092 175.24 24.8688 175.637 24.4715C176.034 24.0743 176.257 23.5355 176.257 22.9737C176.257 22.4119 176.034 21.8731 175.637 21.4759C175.24 21.0786 174.701 20.8555 174.139 20.8555H66.9229Z" fill="#CCCCCC"/>
<path d="M66.9229 31.9375C66.3611 31.9375 65.8224 32.1607 65.4251 32.5579C65.0279 32.9552 64.8047 33.494 64.8047 34.0557C64.8047 34.6175 65.0279 35.1563 65.4251 35.5536C65.8224 35.9508 66.3611 36.174 66.9229 36.174H174.139C174.701 36.174 175.24 35.9508 175.637 35.5536C176.034 35.1563 176.257 34.6175 176.257 34.0557C176.257 33.494 176.034 32.9552 175.637 32.5579C175.24 32.1607 174.701 31.9375 174.139 31.9375H66.9229Z" fill="#CCCCCC"/>
<path d="M66.9229 9.77734C66.3611 9.77734 65.8224 10.0005 65.4251 10.3978C65.0279 10.795 64.8047 11.3338 64.8047 11.8956C64.8047 12.4574 65.0279 12.9962 65.4251 13.3934C65.8224 13.7907 66.3611 14.0138 66.9229 14.0138H174.139C174.701 14.0138 175.24 13.7907 175.637 13.3934C176.034 12.9962 176.257 12.4574 176.257 11.8956C176.257 11.3338 176.034 10.795 175.637 10.3978C175.24 10.0005 174.701 9.77734 174.139 9.77734H66.9229Z" fill="#CCCCCC"/>
<path d="M66.9229 20.8555C66.3611 20.8555 65.8224 21.0786 65.4251 21.4759C65.0279 21.8731 64.8047 22.4119 64.8047 22.9737C64.8047 23.5355 65.0279 24.0743 65.4251 24.4715C65.8224 24.8688 66.3611 25.092 66.9229 25.092H174.139C174.701 25.092 175.24 24.8688 175.637 24.4715C176.034 24.0743 176.257 23.5355 176.257 22.9737C176.257 22.4119 176.034 21.8731 175.637 21.4759C175.24 21.0786 174.701 20.8555 174.139 20.8555H66.9229Z" fill="#CCCCCC"/>
<path d="M66.9229 31.9375C66.3611 31.9375 65.8224 32.1607 65.4251 32.5579C65.0279 32.9552 64.8047 33.494 64.8047 34.0557C64.8047 34.6175 65.0279 35.1563 65.4251 35.5536C65.8224 35.9508 66.3611 36.174 66.9229 36.174H174.139C174.701 36.174 175.24 35.9508 175.637 35.5536C176.034 35.1563 176.257 34.6175 176.257 34.0557C176.257 33.494 176.034 32.9552 175.637 32.5579C175.24 32.1607 174.701 31.9375 174.139 31.9375H66.9229Z" fill="#CCCCCC"/>
</g>
<defs>
<clipPath id="clip0_5130:14558">
<rect width="261.344" height="175" fill="white" transform="translate(49)"/>
</clipPath>
</defs>
</svg>
