<svg width="15" height="26" viewBox="0 0 15 26" fill="none" xmlns="http://www.w3.org/2000/svg">
<path d="M1.29696 13.6978L13.297 25.6978C13.3867 25.7934 13.4952 25.8697 13.6156 25.9218C13.736 25.9739 13.8658 26.0008 13.997 26.0008C14.1282 26.0008 14.258 25.9739 14.3784 25.9218C14.4987 25.8697 14.6072 25.7934 14.697 25.6978C14.7926 25.608 14.8689 25.4995 14.921 25.3791C14.9731 25.2588 15 25.129 15 24.9978C15 24.8666 14.9731 24.7368 14.921 24.6164C14.8689 24.496 14.7926 24.3875 14.697 24.2978L3.41696 12.9978L14.697 1.69776C14.8826 1.51211 14.9869 1.26031 14.9869 0.997762C14.9869 0.735211 14.8826 0.483413 14.697 0.297762C14.5113 0.11211 14.2595 0.00781251 13.997 0.0078125C13.7344 0.00781249 13.4826 0.11211 13.297 0.297762L1.29696 12.2978C1.2013 12.3875 1.12506 12.496 1.07294 12.6164C1.02082 12.7368 0.993927 12.8666 0.993927 12.9978C0.993927 13.129 1.02082 13.2588 1.07294 13.3792C1.12506 13.4995 1.2013 13.608 1.29696 13.6978Z" fill="#8C8C96"/>
</svg>
