<svg width="15" height="26" viewBox="0 0 15 26" fill="none" xmlns="http://www.w3.org/2000/svg">
<path d="M13.703 13.6978L1.70304 25.6978C1.61326 25.7934 1.50482 25.8697 1.38443 25.9218C1.26403 25.9739 1.13423 26.0008 1.00304 26.0008C0.871843 26.0008 0.742042 25.9739 0.621647 25.9218C0.501251 25.8697 0.392816 25.7934 0.303036 25.6978C0.207374 25.608 0.13113 25.4995 0.07901 25.3791C0.0268895 25.2588 0 25.129 0 24.9978C0 24.8666 0.0268895 24.7368 0.07901 24.6164C0.13113 24.496 0.207374 24.3875 0.303036 24.2978L11.583 12.9978L0.303036 1.69776C0.117384 1.51211 0.0130863 1.26031 0.0130863 0.997762C0.0130863 0.735211 0.117384 0.483413 0.303036 0.297762C0.488687 0.11211 0.740486 0.00781251 1.00304 0.0078125C1.26559 0.00781249 1.51739 0.11211 1.70304 0.297762L13.703 12.2978C13.7987 12.3875 13.8749 12.496 13.9271 12.6164C13.9792 12.7368 14.0061 12.8666 14.0061 12.9978C14.0061 13.129 13.9792 13.2588 13.9271 13.3792C13.8749 13.4995 13.7987 13.608 13.703 13.6978Z" fill="#8C8C96"/>
</svg>
