<svg width="360" height="176" viewBox="0 0 360 176" fill="none" xmlns="http://www.w3.org/2000/svg">
<g clip-path="url(#clip0)">
<path d="M158.971 40.272H158.193V18.9352C158.193 17.3134 157.873 15.7076 157.253 14.2093C156.632 12.711 155.722 11.3497 154.576 10.2029C153.429 9.05621 152.068 8.14658 150.569 7.52597C149.071 6.90536 147.465 6.58594 145.843 6.58594H100.638C97.3631 6.58593 94.222 7.887 91.9061 10.2029C89.5901 12.5188 88.2891 15.6599 88.2891 18.9351V135.991C88.2891 137.613 88.6085 139.219 89.2291 140.717C89.8497 142.215 90.7593 143.576 91.9061 144.723C93.0528 145.87 94.4142 146.78 95.9124 147.4C97.4107 148.021 99.0165 148.34 100.638 148.34H145.843C149.119 148.34 152.26 147.039 154.576 144.723C156.892 142.407 158.193 139.266 158.193 135.991V55.46H158.971V40.272Z" fill="#3F3D56"/>
<path d="M146.34 9.79688H140.44C140.711 10.4622 140.815 11.184 140.741 11.8987C140.668 12.6135 140.42 13.2992 140.019 13.8956C139.618 14.4919 139.077 14.9806 138.443 15.3184C137.809 15.6563 137.101 15.8331 136.383 15.8331H110.486C109.767 15.8331 109.06 15.6563 108.425 15.3184C107.791 14.9806 107.25 14.4919 106.849 13.8956C106.449 13.2992 106.201 12.6135 106.127 11.8987C106.054 11.184 106.158 10.4622 106.429 9.79688H100.918C99.7065 9.79687 98.5073 10.0354 97.3884 10.4989C96.2695 10.9623 95.2528 11.6416 94.3965 12.498C93.5401 13.3544 92.8608 14.371 92.3973 15.4899C91.9339 16.6088 91.6953 17.808 91.6953 19.0191V135.903C91.6953 137.114 91.9339 138.314 92.3973 139.432C92.8608 140.551 93.5401 141.568 94.3964 142.424C95.2528 143.281 96.2695 143.96 97.3884 144.424C98.5073 144.887 99.7065 145.126 100.918 145.126H146.34C147.551 145.126 148.751 144.887 149.87 144.424C150.988 143.96 152.005 143.281 152.861 142.424C153.718 141.568 154.397 140.551 154.861 139.432C155.324 138.314 155.563 137.114 155.563 135.903V19.0191C155.563 17.808 155.324 16.6088 154.861 15.4899C154.397 14.371 153.718 13.3544 152.861 12.498C152.005 11.6416 150.988 10.9623 149.87 10.4989C148.751 10.0354 147.551 9.79687 146.34 9.79688Z" fill="white"/>
<path d="M173.457 148.359H73.7967C73.7274 148.359 73.6608 148.332 73.6118 148.282C73.5627 148.233 73.5352 148.167 73.5352 148.098C73.5352 148.028 73.5627 147.962 73.6118 147.913C73.6608 147.863 73.7274 147.836 73.7967 147.836H173.457C173.527 147.836 173.593 147.863 173.642 147.913C173.691 147.962 173.719 148.028 173.719 148.098C173.719 148.167 173.691 148.233 173.642 148.282C173.593 148.332 173.527 148.359 173.457 148.359Z" fill="#CBCBCB"/>
<path d="M123.624 97.0064C135.824 97.0064 145.713 87.1168 145.713 74.9173C145.713 62.7178 135.824 52.8281 123.624 52.8281C111.425 52.8281 101.535 62.7178 101.535 74.9173C101.535 87.1168 111.425 97.0064 123.624 97.0064Z" fill="#E81D25"/>
<path d="M121.439 83.3428C120.942 83.3436 120.458 83.1829 120.061 82.8848L120.036 82.8663L114.845 78.8951C114.604 78.7108 114.403 78.4809 114.251 78.2186C114.099 77.9563 114.001 77.6667 113.961 77.3664C113.922 77.0661 113.941 76.7608 114.02 76.4682C114.098 76.1755 114.233 75.9011 114.418 75.6607C114.602 75.4203 114.832 75.2185 115.094 75.0669C115.356 74.9153 115.646 74.8169 115.946 74.7772C116.247 74.7375 116.552 74.7574 116.844 74.8357C117.137 74.914 117.412 75.0491 117.652 75.2335L121.014 77.812L128.96 67.4459C129.144 67.2056 129.374 67.0039 129.636 66.8524C129.899 66.7009 130.188 66.6025 130.488 66.5628C130.788 66.5232 131.094 66.543 131.386 66.6213C131.679 66.6995 131.953 66.8347 132.193 67.0189L132.194 67.0194L132.145 67.0879L132.195 67.0194C132.68 67.392 132.997 67.9418 133.077 68.5481C133.157 69.1543 132.993 69.7675 132.622 70.2531L123.276 82.4404C123.06 82.7212 122.782 82.9485 122.463 83.1045C122.145 83.2605 121.795 83.3411 121.441 83.3401L121.439 83.3428Z" fill="white"/>
<path d="M255.131 150.533C255.4 150.099 255.716 149.696 256.075 149.332C256.222 149.178 256.378 149.034 256.539 148.894C257.515 148.024 258.706 147.431 259.988 147.174C261.27 146.918 262.597 147.007 263.833 147.433C265.069 147.86 266.169 148.608 267.021 149.6C267.872 150.593 268.443 151.794 268.676 153.081C269.755 149.091 266.947 145.161 264.123 142.143C261.298 139.125 258.07 135.815 258.086 131.68C258.094 129.379 259.219 127.327 260.918 125.805C260.971 125.759 261.023 125.713 261.077 125.668C263.131 123.908 265.773 122.987 268.476 123.09C273.498 123.359 277.883 126.734 280.928 130.738C285.83 137.18 287.978 146.222 284.546 153.555C281.528 160.005 275.091 163.835 268.521 166.914C267.604 167.344 266.688 167.761 265.774 168.165C265.768 168.166 265.762 168.171 265.756 168.172C265.712 168.192 265.668 168.211 265.626 168.231C265.438 168.314 265.249 168.397 265.062 168.48L265.149 168.536L265.419 168.711C265.325 168.654 265.233 168.599 265.139 168.543C265.111 168.525 265.082 168.509 265.054 168.492C261.827 166.556 258.555 164.508 256.326 161.485C254.014 158.347 253.085 153.851 255.131 150.533Z" fill="#F1F1F1"/>
<path d="M276.663 143.244C277.378 144.87 277.852 146.591 278.069 148.353C278.241 149.924 278.176 151.512 277.878 153.064C277.237 156.254 275.84 159.243 273.804 161.781C272.267 163.707 270.493 165.431 268.525 166.913C267.607 167.343 266.692 167.76 265.778 168.164C265.772 168.166 265.765 168.17 265.759 168.172C265.715 168.191 265.671 168.21 265.63 168.23C265.441 168.313 265.253 168.397 265.066 168.479L265.152 168.535L265.422 168.71C265.329 168.653 265.236 168.598 265.143 168.542C265.115 168.525 265.085 168.508 265.057 168.491C265.768 166.007 265.872 163.389 265.362 160.857C264.852 158.324 263.742 155.951 262.126 153.935C260.501 151.945 258.429 150.368 256.078 149.331C256.226 149.177 256.381 149.033 256.542 148.893C257.447 149.309 258.314 149.804 259.133 150.372C262.059 152.395 264.256 155.306 265.4 158.674C266.42 161.73 266.548 165.014 265.767 168.14C265.929 168.035 266.092 167.926 266.25 167.818C269.256 165.791 272.026 163.356 274.113 160.37C275.913 157.847 277.065 154.92 277.467 151.847C277.867 148.49 277.027 145.189 275.528 142.193C273.873 138.989 271.788 136.026 269.33 133.386C266.861 130.674 264.069 128.274 261.018 126.239C260.949 126.193 260.901 126.122 260.883 126.041C260.865 125.96 260.879 125.875 260.922 125.804C260.955 125.74 261.012 125.69 261.08 125.668C261.115 125.659 261.152 125.658 261.187 125.665C261.222 125.672 261.256 125.687 261.284 125.709C261.661 125.96 262.034 126.214 262.403 126.475C265.477 128.651 268.268 131.201 270.712 134.065C273.075 136.826 275.225 139.893 276.663 143.244Z" fill="white"/>
<path d="M210.871 16.8432C213.462 16.8432 215.562 14.7429 215.562 12.1521C215.562 9.56123 213.462 7.46094 210.871 7.46094C208.28 7.46094 206.18 9.56123 206.18 12.1521C206.18 14.7429 208.28 16.8432 210.871 16.8432Z" fill="#F1F1F1"/>
<path d="M269.204 79.6225C270.783 79.6225 272.064 78.342 272.064 76.7624C272.064 75.1828 270.783 73.9023 269.204 73.9023C267.624 73.9023 266.344 75.1828 266.344 76.7624C266.344 78.342 267.624 79.6225 269.204 79.6225Z" fill="#F1F1F1"/>
<path d="M185.497 87.4702C187.076 87.4702 188.357 86.1897 188.357 84.6101C188.357 83.0305 187.076 81.75 185.497 81.75C183.917 81.75 182.637 83.0305 182.637 84.6101C182.637 86.1897 183.917 87.4702 185.497 87.4702Z" fill="#F1F1F1"/>
<path d="M187.117 169.023H286.778C286.847 169.023 286.914 168.996 286.963 168.947C287.012 168.897 287.039 168.831 287.039 168.762C287.039 168.692 287.012 168.626 286.963 168.577C286.914 168.528 286.847 168.5 286.778 168.5H187.117C187.048 168.5 186.981 168.528 186.932 168.577C186.883 168.626 186.855 168.692 186.855 168.762C186.855 168.831 186.883 168.897 186.932 168.947C186.981 168.996 187.048 169.023 187.117 169.023Z" fill="#CBCBCB"/>
<path d="M275.775 31.8633C275.906 30.9342 275.692 29.9894 275.172 29.2079C274.653 28.4263 273.865 27.8624 272.958 27.623C272.051 27.3836 271.087 27.4852 270.25 27.9087C269.413 28.3322 268.76 29.0481 268.415 29.9208L260.328 39.1922L262.701 45.8197L270.834 34.9864C271.365 35.1564 271.926 35.208 272.479 35.1375C273.032 35.067 273.563 34.8761 274.034 34.5784C274.505 34.2806 274.905 33.8832 275.206 33.4141C275.507 32.945 275.701 32.4156 275.775 31.8633Z" fill="#FFB7B7"/>
<path d="M242.259 67.9382L269.104 39.288L265.483 33.5312L231.812 62.0075L242.259 67.9382Z" fill="#3F3D56"/>
<path d="M236.261 50.5288C241.461 50.5288 245.677 46.3128 245.677 41.1121C245.677 35.9113 241.461 31.6953 236.261 31.6953C231.06 31.6953 226.844 35.9113 226.844 41.1121C226.844 46.3128 231.06 50.5288 236.261 50.5288Z" fill="#2F2E41"/>
<path d="M237.023 35.7922C239.05 33.7374 241.502 32.1517 244.207 31.1469C245.944 30.5035 247.834 30.1061 249.649 30.4714C251.465 30.8367 253.182 32.0927 253.688 33.8739C254.102 35.3305 253.675 36.8987 253.032 38.2699C252.389 39.641 251.531 40.9124 251.011 42.3347C250.481 43.786 250.321 45.3467 250.547 46.8752C250.773 48.4037 251.377 49.8516 252.304 51.0875C253.232 52.3233 254.453 53.308 255.858 53.9521C257.262 54.5963 258.805 54.8794 260.347 54.7759C258.563 55.0151 256.919 55.8533 255.175 56.2995C253.432 56.7457 251.374 56.7155 250.078 55.4664C248.707 54.1448 248.68 51.996 248.746 50.0929C248.844 47.264 248.943 44.4351 249.042 41.6061C249.092 40.1634 249.135 38.6744 248.614 37.3279C248.094 35.9813 246.858 34.8022 245.414 34.8144C244.32 34.8237 243.352 35.4865 242.474 36.1401C241.597 36.7937 240.668 37.4911 239.578 37.5883C238.489 37.6855 237.244 36.879 237.326 35.788L237.023 35.7922Z" fill="#2F2E41"/>
<path d="M200.495 104.343C199.591 104.594 198.626 104.505 197.784 104.092C196.941 103.679 196.279 102.972 195.923 102.104C195.567 101.236 195.542 100.267 195.853 99.3816C196.163 98.4962 196.788 97.7554 197.608 97.2997L205.743 88.0703L212.624 89.5569L202.946 99.0359C203.184 99.5399 203.308 100.09 203.311 100.647C203.313 101.204 203.193 101.755 202.96 102.261C202.726 102.767 202.384 103.216 201.958 103.575C201.533 103.935 201.033 104.197 200.495 104.343H200.495Z" fill="#FFB7B7"/>
<path d="M227.265 71.302L206.989 96.7534L200.809 93.9158L224.641 56.8125L227.265 71.302Z" fill="#3F3D56"/>
<path d="M211.082 148.154L206.25 148.078L206.831 164.549H211.082L211.082 148.154Z" fill="#FFB7B7"/>
<path d="M212.166 163.164L203.796 163.164H203.795C202.381 163.164 201.024 163.726 200.023 164.727C199.023 165.727 198.461 167.084 198.461 168.498V168.672L212.166 168.672L212.166 163.164Z" fill="#2F2E41"/>
<path d="M243.08 143.785L237.801 147.174L248.36 159.878L251.937 157.581L243.08 143.785Z" fill="#FFB7B7"/>
<path d="M252.098 155.828L245.054 160.35L245.054 160.351C243.863 161.115 243.025 162.321 242.724 163.703C242.423 165.086 242.683 166.531 243.447 167.722L243.541 167.867L255.074 160.463L252.098 155.828Z" fill="#2F2E41"/>
<path d="M244.96 93.4936C244.96 93.4936 233.231 54.5377 229.461 54.0113C225.692 53.4849 219.619 64.0069 219.619 64.0069C211.745 74.0536 203.625 106.597 203.625 106.597C203.625 106.597 217.161 107.444 227.055 112.708C236.95 117.973 248.627 112.442 248.627 112.442L244.96 93.4936Z" fill="#3F3D56"/>
<path opacity="0.1" d="M244.96 93.4896C244.96 93.4896 233.231 54.5336 229.461 54.0072C225.692 53.4808 221.161 64.1096 221.161 64.1096C217.238 80.3274 203.625 106.593 203.625 106.593C203.625 106.593 217.161 107.44 227.055 112.704C236.95 117.969 248.627 112.438 248.627 112.438L244.96 93.4896Z" fill="black"/>
<path d="M235.335 81.8329V101.408L237.638 129.764L249.148 151.213L243.655 155.137L227.96 134.734L221.753 114.475L212.004 159.322L204.68 158.799L209.766 96.6193L219.419 79.1172L235.335 81.8329Z" fill="#2F2E41"/>
<path d="M223.509 62.9053C219.847 66.5674 223.248 70.491 223.248 70.491L219.062 79.9078L235.542 84.3546L241.301 58.6211L237.377 54.4359C229.53 54.1743 229.526 54.0117 229.526 54.0117C228.151 55.3572 223.509 62.9053 223.509 62.9053Z" fill="#E81D25"/>
<path d="M241.969 55.9526C241.221 55.4001 240.37 55.0016 239.466 54.7802C238.563 54.5588 237.624 54.5189 236.705 54.6627C235.786 54.8066 234.905 55.1314 234.112 55.6183C233.319 56.1052 232.631 56.7445 232.087 57.4993C227.945 63.2676 224.114 72.5821 229.392 84.1989C237.867 102.852 245.242 112.401 248.24 112.4C248.371 112.401 248.501 112.38 248.625 112.339C250.471 111.713 253.139 108.59 253.622 105.838C253.795 104.853 253.754 103.481 252.576 102.539C249.192 99.8328 243.118 91.406 241.223 80.3146C240.176 74.1859 242.207 68.6033 244.095 64.9993C244.892 63.5081 245.125 61.7794 244.752 60.1301C244.378 58.4809 243.422 57.0215 242.06 56.0196L241.969 55.9526Z" fill="#3F3D56"/>
<path d="M236.748 49.6054C240.107 47.7691 241.342 43.5573 239.505 40.1982C237.669 36.839 233.457 35.6044 230.098 37.4407C226.739 39.277 225.504 43.4888 227.341 46.848C229.177 50.2072 233.389 51.4417 236.748 49.6054Z" fill="#FFB7B7"/>
<path d="M223.676 42.9991H233.685L233.788 41.562L234.301 42.9991H235.842L236.046 40.1509L237.063 42.9991H240.045V42.8579C240.043 40.8751 239.254 38.9741 237.852 37.5719C236.45 36.1698 234.549 35.3811 232.566 35.3789H231.155C229.172 35.3811 227.271 36.1698 225.869 37.5719C224.467 38.974 223.678 40.8751 223.676 42.8579V42.9991Z" fill="#2F2E41"/>
<path d="M238.535 48.1652L242.806 46.7792V36.4062H234.738L234.938 36.6057C237.717 39.3813 240.808 49.2286 238.535 48.1652Z" fill="#2F2E41"/>
</g>
<defs>
<clipPath id="clip0">
<rect width="213.503" height="162.439" fill="white" transform="translate(73.5352 6.58594)"/>
</clipPath>
</defs>
</svg>
