<svg width="29" height="28" viewBox="0 0 29 28" fill="none" xmlns="http://www.w3.org/2000/svg">
<path d="M4.67578 12.25C3.70745 12.25 2.92578 13.0317 2.92578 14C2.92578 14.9683 3.70745 15.75 4.67578 15.75C5.64411 15.75 6.42578 14.9683 6.42578 14C6.42578 13.0317 5.64411 12.25 4.67578 12.25ZM4.67578 5.25C3.70745 5.25 2.92578 6.03167 2.92578 7C2.92578 7.96833 3.70745 8.75 4.67578 8.75C5.64411 8.75 6.42578 7.96833 6.42578 7C6.42578 6.03167 5.64411 5.25 4.67578 5.25ZM4.67578 19.25C3.70745 19.25 2.92578 20.0433 2.92578 21C2.92578 21.9567 3.71911 22.75 4.67578 22.75C5.63245 22.75 6.42578 21.9567 6.42578 21C6.42578 20.0433 5.64411 19.25 4.67578 19.25ZM8.17578 22.1667H24.5091V19.8333H8.17578V22.1667ZM8.17578 15.1667H24.5091V12.8333H8.17578V15.1667ZM8.17578 5.83333V8.16667H24.5091V5.83333H8.17578Z" fill="white"/>
</svg>
