<svg width="360" height="176" viewBox="0 0 360 176" fill="none" xmlns="http://www.w3.org/2000/svg">
<g clip-path="url(#clip0)">
<path d="M272.488 174.684H147.121V175.224H272.488V174.684Z" fill="#3F3D56"/>
<path d="M249.091 82.7369C249.332 83.0204 249.511 83.3515 249.617 83.7087C249.722 84.0658 249.751 84.4411 249.702 84.8102C249.653 85.1793 249.527 85.534 249.332 85.8513C249.137 86.1686 248.878 86.4415 248.571 86.6523L235.596 95.5601L229.883 99.3689C229.559 99.5853 229.165 99.6731 228.78 99.6154C228.394 99.5577 228.043 99.3585 227.796 99.0566C227.652 98.8806 227.548 98.6755 227.491 98.4554C227.435 98.2352 227.426 98.0053 227.467 97.7816C227.507 97.5579 227.596 97.3456 227.727 97.1595C227.857 96.9734 228.027 96.8179 228.223 96.7037L233.757 93.4907L243.414 84.2931L237.206 77.6249L241.805 74.1758L249.091 82.7369Z" fill="#A0616A"/>
<path d="M218.582 166.611H215.408L213.523 140.398L221.571 140.168L218.582 166.611Z" fill="#A0616A"/>
<path d="M218.812 175.121C217.966 175.507 217.257 172.378 216.543 173.079C214.547 175.041 211.489 175.469 208.824 174.612L209.757 174.601C209.596 174.55 209.447 174.466 209.32 174.355C209.193 174.244 209.089 174.109 209.015 173.957C208.942 173.805 208.9 173.639 208.892 173.47C208.884 173.302 208.911 173.133 208.97 172.975C209.041 172.786 209.157 172.616 209.308 172.482C209.459 172.347 209.64 172.251 209.836 172.202L211.96 171.672L215.294 165.808L218.697 165.578C219.456 166.545 219.986 167.672 220.246 168.874C220.507 170.075 220.491 171.32 220.201 172.515C219.893 173.776 219.416 174.845 218.812 175.121Z" fill="#2F2E41"/>
<path d="M239.711 166.612H236.537L234.652 140.399L242.93 138.789L239.711 166.612Z" fill="#A0616A"/>
<path d="M239.941 175.116C239.095 175.502 238.386 172.373 237.672 173.075C235.676 175.037 232.618 175.464 229.953 174.607L230.886 174.597C230.725 174.545 230.576 174.462 230.449 174.351C230.321 174.24 230.218 174.104 230.144 173.952C230.071 173.8 230.029 173.635 230.021 173.466C230.013 173.297 230.04 173.129 230.099 172.971C230.17 172.781 230.286 172.612 230.437 172.477C230.588 172.343 230.769 172.247 230.965 172.198L233.089 171.667L236.423 165.804L240.056 165.344L240.148 165.494C240.851 166.626 241.303 167.895 241.477 169.216C241.65 170.537 241.539 171.88 241.152 173.155C240.85 174.123 240.439 174.889 239.941 175.116Z" fill="#2F2E41"/>
<path d="M243.309 74.7688C240.391 75.1749 238.37 76.7733 237.547 79.9618L232.182 70.0566C231.864 69.4271 231.784 68.704 231.955 68.0199C232.127 67.3358 232.539 66.7365 233.117 66.3318C233.73 65.9022 234.484 65.7233 235.225 65.8317C235.966 65.9401 236.637 66.3277 237.101 66.9149L243.309 74.7688Z" fill="#E81D25"/>
<path d="M248.931 137.64C235.887 143.411 222.538 144.122 208.922 140.399C213.894 121.115 219.765 103.677 219.729 89.3528L233.065 88.2031L235.119 91.4585C239.991 99.1822 243.354 107.76 245.029 116.737L248.931 137.64Z" fill="#2F2E41"/>
<path d="M227.086 59.687C230.895 59.687 233.984 56.5986 233.984 52.7888C233.984 48.979 230.895 45.8906 227.086 45.8906C223.276 45.8906 220.188 48.979 220.188 52.7888C220.188 56.5986 223.276 59.687 227.086 59.687Z" fill="#A0616A"/>
<path d="M234.676 64.9769L226.169 65.4368L224.789 57.8488L231.687 56.6992L234.676 64.9769Z" fill="#A0616A"/>
<path d="M233.756 89.3493L224.435 89.6118L219.73 90.269C217.42 82.639 215.475 75.0264 220.189 68.6547L225.708 63.1362L233.986 62.9062L234.095 62.9689C235.41 63.7221 236.429 64.9006 236.984 66.3103C237.539 67.72 237.598 69.2767 237.15 70.724C235.095 77.3994 233.776 83.703 233.756 89.3493Z" fill="#E81D25"/>
<path d="M219.5 110.735L218.922 118.636C218.891 119.06 218.708 119.457 218.407 119.757C218.106 120.056 217.707 120.236 217.283 120.264C217.039 120.28 216.795 120.246 216.565 120.162C216.335 120.079 216.125 119.948 215.949 119.779C215.772 119.61 215.633 119.406 215.539 119.18C215.446 118.954 215.401 118.711 215.407 118.466L215.591 110.735L221.339 88.8906L221.569 75.5542L228.008 75.3242L227.548 90.7302L219.5 110.735Z" fill="#A0616A"/>
<path d="M228.697 76.4726C225.968 75.3626 223.418 75.7343 221.109 78.0821L221.426 66.8219C221.466 66.1177 221.758 65.4515 222.249 64.9453C222.74 64.4391 223.397 64.1268 224.1 64.0657C224.846 64.0009 225.588 64.2236 226.175 64.6884C226.762 65.1531 227.149 65.8247 227.256 66.5655L228.697 76.4726Z" fill="#E81D25"/>
<path d="M241.69 83.4854H220.535C225.47 70.4176 227.061 58.2607 220.535 47.8448C220.647 44.7164 224.66 42.0043 227.776 42.3039C231.456 42.6578 236.401 45.3622 237.091 48.9945L241.69 83.4854Z" fill="#2F2E41"/>
<path d="M174.271 41.7314H173.306V15.2986C173.306 13.2896 172.91 11.3002 172.141 9.44408C171.372 7.58796 170.246 5.90145 168.825 4.48084C167.404 3.06024 165.718 1.93335 163.862 1.16452C162.006 0.395699 160.016 -6.02056e-06 158.007 0H102.006C99.9966 -4.43618e-06 98.0072 0.395704 96.1511 1.16453C94.295 1.93336 92.6085 3.06024 91.1879 4.48085C89.7673 5.90146 88.6404 7.58797 87.8716 9.44408C87.1027 11.3002 86.707 13.2896 86.707 15.2986V160.311C86.707 162.32 87.1027 164.31 87.8716 166.166C88.6404 168.022 89.7673 169.708 91.1879 171.129C92.6085 172.549 94.295 173.676 96.1511 174.445C98.0072 175.214 99.9966 175.61 102.006 175.61H158.007C160.016 175.61 162.006 175.214 163.862 174.445C165.718 173.676 167.404 172.55 168.825 171.129C170.246 169.708 171.372 168.022 172.141 166.166C172.91 164.31 173.306 162.32 173.306 160.311V60.5468H174.271V41.7314Z" fill="#3F3D56"/>
<path d="M158.622 3.98047H151.312C151.648 4.80465 151.776 5.69885 151.685 6.58431C151.595 7.46977 151.287 8.3193 150.791 9.05807C150.294 9.79684 149.624 10.4022 148.838 10.8208C148.053 11.2393 147.176 11.4583 146.286 11.4584H114.204C113.314 11.4583 112.437 11.2393 111.652 10.8208C110.866 10.4022 110.196 9.79685 109.699 9.05808C109.203 8.3193 108.895 7.46977 108.805 6.58431C108.714 5.69886 108.842 4.80465 109.178 3.98047H102.351C100.85 3.98047 99.3647 4.27598 97.9785 4.85013C96.5924 5.42427 95.3329 6.26582 94.272 7.32671C93.2112 8.3876 92.3696 9.64706 91.7954 11.0332C91.2213 12.4193 90.9258 13.9049 90.9258 15.4053V160.205C90.9258 161.705 91.2213 163.191 91.7954 164.577C92.3696 165.963 93.2111 167.223 94.272 168.284C95.3329 169.345 96.5924 170.186 97.9785 170.76C99.3647 171.334 100.85 171.63 102.351 171.63H158.622C160.122 171.63 161.608 171.334 162.994 170.76C164.38 170.186 165.64 169.345 166.7 168.284C167.761 167.223 168.603 165.963 169.177 164.577C169.751 163.191 170.047 161.705 170.047 160.205V15.4053C170.047 12.3752 168.843 9.46927 166.7 7.32671C164.558 5.18414 161.652 3.98046 158.622 3.98047Z" fill="white"/>
<path d="M160.167 26.5977H100.809V77.5111H160.167V26.5977Z" fill="#E6E6E6"/>
<path d="M118.425 88.132C120.824 88.132 122.769 86.1874 122.769 83.7886C122.769 81.3899 120.824 79.4453 118.425 79.4453C116.027 79.4453 114.082 81.3899 114.082 83.7886C114.082 86.1874 116.027 88.132 118.425 88.132Z" fill="#E81D25"/>
<path d="M120.597 83.423H118.788V81.6133H118.064V83.423H116.254V84.1469H118.064V85.9566H118.788V84.1469H120.597V83.423Z" fill="white"/>
<path d="M141.347 88.1281C143.746 88.1281 145.691 86.1835 145.691 83.7847C145.691 81.386 143.746 79.4414 141.347 79.4414C138.948 79.4414 137.004 81.386 137.004 83.7847C137.004 86.1835 138.948 88.1281 141.347 88.1281Z" fill="#E81D25"/>
<path d="M143.52 84.1458V83.4219H139.176V84.1458H143.52Z" fill="white"/>
<path d="M132.703 32.9492H128.013C127.848 32.9492 127.689 33.0147 127.573 33.1314C127.456 33.248 127.391 33.4062 127.391 33.5711V35.6301C127.391 35.795 127.456 35.9532 127.573 36.0698C127.689 36.1865 127.848 36.252 128.013 36.252H128.79V39.337H131.926V36.252H132.703C132.868 36.252 133.026 36.1865 133.143 36.0698C133.26 35.9532 133.325 35.795 133.325 35.6301V33.5711C133.325 33.4062 133.26 33.248 133.143 33.1314C133.026 33.0147 132.868 32.9492 132.703 32.9492Z" fill="#E81D25"/>
<path d="M137.4 51.7932C134.527 47.5895 133.058 42.5844 133.204 37.4949C133.207 37.3774 133.169 37.2627 133.096 37.1702C133.024 37.0777 132.922 37.0131 132.807 36.9873V36.0977H127.853V36.975H127.785C127.718 36.975 127.652 36.9883 127.59 37.0139C127.529 37.0395 127.473 37.077 127.425 37.1243C127.378 37.1716 127.341 37.2277 127.315 37.2894C127.29 37.3511 127.277 37.4172 127.277 37.484C127.277 37.4963 127.277 37.5086 127.278 37.521C127.669 42.9616 126.351 47.8406 123.325 52.1581C123.15 52.4062 123.061 52.7041 123.071 53.007L123.613 69.7637C123.626 70.1375 123.783 70.4918 124.051 70.7526C124.319 71.0135 124.677 71.1608 125.051 71.1638H136.256C136.635 71.1607 136.997 71.01 137.266 70.7439C137.534 70.4778 137.689 70.1172 137.695 69.739L137.904 53.4697C137.91 52.8725 137.734 52.2877 137.4 51.7932Z" fill="#3F3D56"/>
<path opacity="0.2" d="M131.726 33.6172C131.726 33.973 131.585 34.3143 131.333 34.5659C131.082 34.8176 130.741 34.9589 130.385 34.9589C130.029 34.9589 129.688 34.8176 129.436 34.5659C129.184 34.3143 129.043 33.973 129.043 33.6172" fill="black"/>
<path d="M135.626 57.3588H134.269C134.14 56.5182 133.713 55.7517 133.068 55.198C132.422 54.6442 131.6 54.3398 130.749 54.3398C129.899 54.3398 129.076 54.6442 128.431 55.198C127.785 55.7517 127.359 56.5182 127.229 57.3588H125.872C125.728 57.3588 125.585 57.39 125.454 57.4503C125.323 57.5106 125.206 57.5986 125.112 57.7081C125.018 57.8177 124.949 57.9463 124.91 58.0851C124.87 58.224 124.861 58.3697 124.883 58.5124L126.357 68.0928H134.82L136.61 58.5447C136.637 58.4001 136.632 58.2513 136.595 58.1088C136.558 57.9664 136.491 57.8339 136.397 57.7207C136.303 57.6074 136.185 57.5163 136.052 57.4538C135.918 57.3912 135.773 57.3588 135.626 57.3588V57.3588Z" fill="#E81D25"/>
<path d="M160.167 98.2656H100.809V149.179H160.167V98.2656Z" fill="#E6E6E6"/>
<path d="M118.425 159.796C120.824 159.796 122.769 157.851 122.769 155.453C122.769 153.054 120.824 151.109 118.425 151.109C116.027 151.109 114.082 153.054 114.082 155.453C114.082 157.851 116.027 159.796 118.425 159.796Z" fill="#E81D25"/>
<path d="M120.597 155.091H118.788V153.281H118.064V155.091H116.254V155.815H118.064V157.625H118.788V155.815H120.597V155.091Z" fill="white"/>
<path d="M141.347 159.796C143.746 159.796 145.691 157.851 145.691 155.453C145.691 153.054 143.746 151.109 141.347 151.109C138.948 151.109 137.004 153.054 137.004 155.453C137.004 157.851 138.948 159.796 141.347 159.796Z" fill="#E81D25"/>
<path d="M143.52 155.814V155.09H139.176V155.814H143.52Z" fill="white"/>
<path d="M142.175 134.432L142.207 134.432C143.325 134.441 144.419 134.113 145.348 133.491C146.277 132.869 146.996 131.982 147.413 130.945C148.726 127.625 149.033 123.992 148.297 120.499C147.56 117.005 145.813 113.806 143.271 111.298C140.73 108.791 137.507 107.086 134.004 106.397C130.501 105.708 126.872 106.064 123.57 107.422C120.268 108.78 117.439 111.079 115.434 114.033C113.429 116.987 112.337 120.465 112.294 124.035C112.252 127.605 113.26 131.109 115.194 134.11C117.128 137.111 119.902 139.477 123.171 140.913C124.187 141.363 125.315 141.495 126.407 141.292C127.5 141.09 128.505 140.562 129.293 139.778C130.981 138.081 132.988 136.734 135.199 135.817C137.41 134.899 139.781 134.429 142.175 134.432Z" fill="white"/>
<path d="M132.826 128.926C136.145 128.926 138.836 126.235 138.836 122.916C138.836 119.597 136.145 116.906 132.826 116.906C129.507 116.906 126.816 119.597 126.816 122.916C126.816 126.235 129.507 128.926 132.826 128.926Z" fill="#F9A825"/>
</g>
<defs>
<clipPath id="clip0">
<rect width="185.779" height="175.61" fill="white" transform="translate(86.707)"/>
</clipPath>
</defs>
</svg>
